<svg width="99" height="98" viewBox="0 0 99 98" fill="none" xmlns="http://www.w3.org/2000/svg">
<g id="appreciation 1" clip-path="url(#clip0_783_149)">
<path id="Vector" d="M30.9127 16.8101C30.1215 15.7991 29.6122 14.5671 29.4929 13.2027C29.1689 9.49948 32.0013 6.30568 35.6872 5.98321L40.2697 5.58229C42.3617 5.39926 44.3397 6.20821 45.7712 7.65417C46.9298 5.9816 48.7374 4.84147 50.8294 4.65844L55.3122 4.26624C59.0978 3.93505 62.3507 6.69465 62.6661 10.3004C62.7855 11.6648 62.4979 12.9666 61.8943 14.0996M32.4814 12.9413C32.3024 10.8947 33.851 9.08985 35.943 8.90682L40.5255 8.50591C42.6175 8.32288 44.456 9.83143 44.635 11.878L44.959 15.5812L36.6906 16.3046C34.499 16.4963 32.6605 14.9878 32.4814 12.9413ZM56.216 14.5963L47.9476 15.3197L47.6236 11.6165C47.4446 9.56996 48.9931 7.76508 51.0851 7.58206L55.6676 7.18114C57.7597 6.99811 59.5981 8.50666 59.7772 10.5532C59.8566 12.6084 58.308 14.4133 56.216 14.5963Z" stroke="black" stroke-width="1.4" stroke-miterlimit="10"/>
<path id="Vector_2" d="M77.9255 27.5251L85.4966 26.8628C88.8836 26.5664 91.8035 28.9624 92.0934 32.2758L96.4929 82.5619C96.7828 85.8753 94.3233 88.7419 90.9362 89.0382L15.325 95.6533C11.938 95.9497 9.01804 93.5537 8.72815 90.2403L4.32869 39.9542C4.0388 36.6408 6.49833 33.7742 9.88539 33.4779L17.4565 32.8155" stroke="black" stroke-width="1.4" stroke-miterlimit="10"/>
<path id="Vector_3" d="M77.4143 21.6779L77.9259 27.5251L80.262 54.2275L54.5602 56.4761L45.4949 57.2692L19.793 59.5178L17.4569 32.8155L16.9453 26.9683" stroke="black" stroke-width="1.4" stroke-miterlimit="10"/>
<path id="Vector_4" d="M42.6465 24.7197L45.4942 57.2692L54.5596 56.4761L51.7119 23.9265" stroke="black" stroke-width="1.4" stroke-miterlimit="10"/>
<path id="Vector_5" d="M41.0248 23.3887L40.3768 15.9822L14.675 18.2308C13.878 18.3005 13.2403 19.0437 13.3086 19.8233L13.8286 25.768C13.8969 26.5476 14.6539 27.1688 15.4508 27.0991L16.9451 26.9683L41.1527 24.8505L42.6469 24.7197L51.7123 23.9266L53.2066 23.7959L77.4141 21.678L78.9084 21.5473C79.7054 21.4775 80.343 20.7343 80.2748 19.9547L79.7547 14.01C79.6865 13.2304 78.9295 12.6092 78.1325 12.679L52.4307 14.9276L53.0787 22.3341" stroke="black" stroke-width="1.4" stroke-miterlimit="10"/>
<path id="Vector_6" d="M41.0244 23.3886L41.1523 24.8504L42.6466 24.7197L51.712 23.9266L53.2063 23.7958L53.0784 22.334" stroke="black" stroke-width="1.4" stroke-miterlimit="10"/>
<path id="Vector_7" d="M15.5518 82.1802L45.8361 79.5306" stroke="black" stroke-width="1.4" stroke-miterlimit="10" stroke-linecap="round"/>
<path id="Vector_8" d="M15.5557 76.4844L45.84 73.8348" stroke="black" stroke-width="1.4" stroke-miterlimit="10" stroke-linecap="round"/>
<path id="Vector_9" d="M13.2178 60.0931L86.7369 53.661" stroke="black" stroke-width="1.4" stroke-miterlimit="10" stroke-linecap="round"/>
<path id="Vector_10" d="M16.0723 88.1248L32.111 86.7215" stroke="black" stroke-width="1.4" stroke-miterlimit="10" stroke-linecap="round"/>
</g>
<defs>
<clipPath id="clip0_783_149">
<rect width="90" height="90" fill="white" transform="translate(0.536133 8.07654) rotate(-5)"/>
</clipPath>
</defs>
</svg>
