<svg width="99" height="99" viewBox="0 0 99 99" fill="none" xmlns="http://www.w3.org/2000/svg">
<g id="family-health-insurance-img 1" clip-path="url(#clip0_783_126)">
<path id="Vector" d="M29.9502 62.4389C30.5556 62.4516 31.1574 62.3434 31.7206 62.1208C32.2837 61.8983 32.7969 61.5657 33.2301 61.1427C33.3712 61.0218 33.4593 60.8504 33.4755 60.6653C33.4917 60.4804 33.4347 60.2963 33.3167 60.1528C33.2595 60.0792 33.1876 60.0182 33.1057 59.9737C33.0238 59.9291 32.9336 59.9019 32.8406 59.8938C32.7478 59.8857 32.6542 59.8967 32.5657 59.9264C32.4773 59.9561 32.3961 60.0036 32.3268 60.0662C32.0545 60.3886 31.7087 60.641 31.3186 60.8019C30.9284 60.9628 30.5052 61.0275 30.0848 60.9908C29.6643 60.954 29.2589 60.8167 28.9026 60.5905C28.5463 60.3643 28.2495 60.0558 28.0374 59.6909C27.9788 59.6192 27.9063 59.56 27.8245 59.5168C27.7427 59.4735 27.6529 59.447 27.5607 59.439C27.4684 59.4309 27.3756 59.4413 27.2874 59.4698C27.1992 59.4981 27.1176 59.5439 27.0475 59.6043C26.9063 59.7251 26.8183 59.8965 26.8021 60.0815C26.7859 60.2666 26.8429 60.4507 26.9609 60.5942C27.3098 61.0866 27.7544 61.5037 28.2679 61.8207C28.7814 62.1375 29.3536 62.3479 29.9502 62.4389Z" fill="black"/>
<path id="Vector_2" d="M75.2203 73.6034C76.5872 73.1454 77.7914 72.2994 78.6859 71.1689C79.5804 70.0382 80.1267 68.6718 80.2579 67.2361L80.3335 66.3719C81.0894 66.142 81.7623 65.6979 82.2709 65.0933C82.7794 64.4887 83.1018 63.7497 83.1989 62.9657C83.296 62.1817 83.1636 61.3862 82.8179 60.6759C82.4721 59.9655 81.9278 59.3707 81.2509 58.9634C82.4133 56.896 84.9043 51.5884 83.168 47.0033C82.0498 44.0398 79.4009 41.924 75.3031 40.8056L74.72 40.2321C65.8714 32.7924 54.2864 36.1803 51.0226 40.5495C50.623 41.1212 50.2734 41.7263 49.9777 42.358C49.8672 40.8507 49.2966 39.4137 48.343 38.241C47.217 36.8988 45.83 35.7992 44.2661 35.0092C42.7023 34.2192 40.9942 33.7551 39.2456 33.6453C37.4047 33.4106 35.5347 33.5848 33.769 34.1554C32.0031 34.7262 30.385 35.6794 29.0297 36.9471C27.5264 35.9432 25.7919 35.3391 23.9902 35.1921C18.8365 34.7412 14.3307 37.9252 13.954 42.2304C13.8624 43.2828 14.0007 44.3427 14.3594 45.3363C14.7181 46.3301 15.2886 47.2338 16.0312 47.9851L15.5872 53.0602C14.796 53.2899 14.0926 53.7534 13.5695 54.39C13.0464 55.0267 12.7281 55.8066 12.6563 56.6274C12.5844 57.4482 12.7625 58.2715 13.1671 58.9893C13.5717 59.7071 14.1839 60.2857 14.9233 60.6492L14.8531 61.4506C14.7156 62.8894 15.0027 64.337 15.6788 65.6145C16.3548 66.892 17.3903 67.9434 18.6574 68.6389L17.5464 69.0326C14.455 70.3453 12.5042 72.3753 12.309 74.6065L11.3962 85.0395C11.2582 86.6637 11.769 88.2766 12.8168 89.5253C13.8647 90.774 15.3642 91.5571 16.9879 91.7034L72.7821 96.5847C73.585 96.6529 74.3934 96.5623 75.1611 96.3181C75.929 96.0738 76.6411 95.6806 77.2571 95.1611C77.873 94.6416 78.3805 94.0059 78.7507 93.2903C79.1209 92.5747 79.3464 91.7931 79.4147 90.9903L80.3219 80.6202C80.5762 77.7134 78.0341 75.1003 75.2203 73.6034ZM60.5064 80.7232C60.4749 81.0219 60.3806 81.3105 60.2296 81.5702C60.0787 81.8298 59.8744 82.0547 59.6304 82.2298L59.9053 79.0873C60.2141 79.1776 60.5558 80.1575 60.5064 80.7232ZM51.1895 93.1124C51.5975 92.4063 51.8249 91.6105 51.8514 90.7954C53.7386 91.2461 55.4555 92.232 56.796 93.6345L51.1895 93.1124ZM38.4531 87.945C37.1238 87.8287 35.8951 87.1891 35.0374 86.1668C34.1796 85.1447 33.7631 83.8235 33.8794 82.4942L34.3949 76.6021C35.4339 76.8513 35.371 76.8458 35.4509 76.837C42.8828 77.4872 48.0567 73.3642 51.2889 69.3565C51.5316 72.7342 52.6755 77.394 56.8812 78.7277C57.356 78.8564 57.8549 78.8674 58.3349 78.7599L57.818 84.6678C57.6974 85.9981 57.0543 87.2265 56.0297 88.0835C55.005 88.9407 53.6823 89.3565 52.3516 89.24L38.4531 87.945ZM32.5254 79.8742C32.3099 79.6625 32.1432 79.4062 32.0366 79.1235C31.9302 78.8408 31.8865 78.5383 31.9086 78.237C31.9314 77.9344 32.0237 77.6411 32.1783 77.3801C32.333 77.119 32.5458 76.8971 32.8003 76.7317L32.5254 79.8742ZM23.6946 69.697L31.3936 70.3706C31.5889 71.9531 31.9853 73.504 32.5731 74.9861C32.0905 75.2916 31.5236 75.436 30.9537 75.3986L27.1828 75.0687C26.1426 74.9735 25.1822 74.4712 24.5108 73.671C23.8394 72.8709 23.5114 71.8378 23.5983 70.797L23.6946 69.697ZM44.1421 50.0646L45.1467 49.44L44.6161 55.505C43.9683 53.7679 43.8045 51.8875 44.1421 50.0646ZM50.1848 57.9079L50.1284 58.5521L49.638 58.3667C49.7992 58.1903 49.983 58.0361 50.1848 57.9079ZM46.021 57.5436C46.1227 57.6474 46.2415 57.737 46.3419 57.8566L45.9962 57.8264L46.021 57.5436ZM53.7581 62.3053C52.7082 64.715 47.1336 76.1334 35.6322 75.1272L34.2674 74.8019C32.1973 69.871 32.3697 65.548 34.7551 61.9885C35.3702 61.4724 46.3763 56.1972 53.7609 62.2739L53.7581 62.3053ZM55.1487 63.0603C56.3153 63.3235 57.4053 63.8529 58.3335 64.607C59.2617 65.361 60.0031 66.3195 60.4998 67.4074C61.9147 71.141 59.4487 75.8017 58.6849 77.1123C58.2534 77.219 57.8049 77.239 57.3657 77.171C53.1744 75.8544 52.7532 69.9912 52.8012 67.2721C53.694 65.9212 54.4799 64.5024 55.1514 63.0288L55.1487 63.0603ZM60.9738 77.9142C60.7803 77.7218 60.5599 77.5586 60.3195 77.4294C61.0687 76.0605 61.6528 74.6076 62.0599 73.1011L70.0417 73.7994L69.9468 74.8835C69.8557 75.9254 69.3545 76.8882 68.5533 77.5605C67.7522 78.2327 66.7169 78.5591 65.6751 78.468L61.9198 78.1394C61.5962 78.0922 61.2795 78.0061 60.9765 77.8827L60.9738 77.9142ZM72.2846 72.4124L62.3858 71.5464C62.6456 69.9729 62.5036 68.3594 61.973 66.8555C60.9831 64.2357 58.6579 62.4014 55.0744 61.3755C54.0651 60.4444 52.9132 59.6808 51.6625 59.1137L51.7821 57.7468C52.3695 57.909 53.4714 58.1638 53.5185 58.1679C61.5318 58.869 67.3899 53.9825 71.1334 49.1962C71.3548 52.9995 72.5391 58.6445 77.4538 60.1986C78.0305 60.3388 78.6318 60.3427 79.2102 60.2098L78.6108 67.0604C78.546 67.8252 78.3309 68.5699 77.9778 69.2515C77.6247 69.9333 77.1406 70.5386 76.5532 71.0328C75.9658 71.527 75.2865 71.9006 74.5546 72.132C73.8225 72.3632 73.0521 72.4479 72.2874 72.381L72.2846 72.4124ZM81.6362 62.7019C81.5949 63.0976 81.4623 63.4783 81.2488 63.814C81.0353 64.1497 80.7469 64.4314 80.4062 64.6367L80.7609 60.5829C81.0637 60.8419 81.301 61.1689 81.453 61.5373C81.6052 61.9055 81.668 62.3047 81.6362 62.7019ZM75.346 42.4875C78.6124 43.5174 80.7443 45.2081 81.6319 47.5497C83.2515 51.8396 80.3923 57.1942 79.5547 58.6251C79.0449 58.8118 78.4917 58.8459 77.9628 58.7232C73.0011 57.165 72.6387 50.0878 72.6402 47.1747C73.6479 45.6759 74.552 44.1098 75.346 42.4875ZM52.2764 41.4192C52.8014 40.6202 53.5172 39.9646 54.3591 39.5115C57.3625 37.7649 60.8398 37.0091 64.2972 37.3513C67.7546 37.6936 71.0162 39.1166 73.6188 41.4181L73.9711 41.7339C72.6881 44.4558 65.8302 57.6934 53.6689 56.6295C53.6689 56.6295 52.2741 56.2858 51.6722 56.1064C49.2398 50.4313 49.4547 45.6213 52.2764 41.4192ZM50.0305 56.2319C49.2531 56.5227 48.5833 57.0441 48.1107 57.7264C47.7115 56.864 47.021 56.1701 46.1606 55.7667L46.7943 48.5234C47.4702 47.9801 48.0602 47.3378 48.5443 46.6182C48.1732 49.8981 48.6864 53.2173 50.0305 56.2319ZM23.794 36.7108C25.5466 36.8477 27.2195 37.5009 28.6012 38.5879C28.6662 38.6813 28.7553 38.7555 28.8589 38.8024C28.9626 38.8494 29.077 38.8673 29.1902 38.8546C29.3033 38.8418 29.4108 38.7986 29.5014 38.7296C29.5919 38.6606 29.6621 38.5684 29.7046 38.4628C30.8845 37.2187 32.3418 36.271 33.9575 35.697C35.5733 35.123 37.3018 34.9389 39.0022 35.1598C40.5437 35.2384 42.0528 35.6323 43.4362 36.317C44.8195 37.0017 46.0479 37.9628 47.0452 39.1408C47.9426 40.2556 48.3847 41.6689 48.2824 43.0963C47.9951 46.3802 43.0464 48.6546 43.0464 48.6546C38.1127 50.7562 32.6562 48.1572 30.8316 46.5727C30.6777 46.4448 30.4818 46.379 30.282 46.3878C30.0821 46.3967 29.8928 46.4796 29.7508 46.6206C28.4646 47.9595 26.7984 48.8714 24.9772 49.2331C23.1562 49.5946 21.2679 49.3887 19.5677 48.6428C19.5677 48.6428 14.8501 46.6469 15.3667 42.3698C15.8447 38.8968 19.5045 36.3355 23.794 36.7108ZM17.5159 49.1125L18.474 49.9246C18.2752 51.1482 17.8224 52.3167 17.1448 53.3548L17.5159 49.1125ZM14.1731 56.7363C14.2137 56.3347 14.3494 55.9484 14.569 55.6097C14.7886 55.2709 15.0859 54.9895 15.436 54.7886L15.08 58.8581C14.776 58.608 14.5351 58.2899 14.3768 57.9295C14.2186 57.5691 14.1474 57.1765 14.169 56.7835L14.1731 56.7363ZM16.4203 61.6352L16.907 56.073C18.491 54.563 19.5697 52.6003 19.9951 50.4535C21.7859 51.0605 23.7075 51.172 25.5564 50.7763C27.4054 50.3807 29.1131 49.4926 30.4987 48.206C32.2142 49.4095 34.1622 50.2409 36.218 50.6471C38.2738 51.0533 40.3918 51.0252 42.4359 50.5645C42.202 53.0668 42.7207 55.5821 43.9255 57.7878C39.1802 57.7367 34.2314 60.0111 33.4897 61.0703C31.915 63.328 31.122 66.0387 31.2312 68.7891L21.7252 67.9574C20.1834 67.8225 18.7582 67.0806 17.7634 65.8949C16.7685 64.7093 16.2854 63.1771 16.4203 61.6352ZM19.4295 90.3971L20.3478 79.9013C20.3553 79.8153 20.3456 79.7287 20.3192 79.6466C20.2927 79.5645 20.2502 79.4885 20.1939 79.4231C20.1377 79.3577 20.069 79.3042 19.9917 79.2657C19.9145 79.2274 19.8303 79.2047 19.7443 79.1993C19.6585 79.1897 19.5717 79.1974 19.4889 79.2218C19.4063 79.2462 19.3292 79.287 19.2625 79.3416C19.1957 79.3963 19.1406 79.4637 19.1003 79.54C19.06 79.6163 19.0354 79.6998 19.0279 79.7858L18.1152 90.2188L17.1882 90.1377C15.9797 90.0319 14.8627 89.4505 14.083 88.5212C13.3032 87.5919 12.9245 86.3909 13.0302 85.1824L13.9375 74.8123C14.1066 72.8797 16.2505 71.3574 18.2041 70.5625C19.445 70.0421 20.7681 69.7452 22.1124 69.6853L22.0216 70.7224C21.894 72.1809 22.351 73.6303 23.2921 74.7518C24.2332 75.8734 25.5813 76.5752 27.0398 76.7028L30.5907 77.0134C30.4324 77.3716 30.3349 77.7537 30.3018 78.144C30.2339 78.8825 30.391 79.6245 30.7525 80.2721C31.1141 80.9198 31.6632 81.4429 32.3276 81.7726L32.2712 82.4169C32.1654 83.6662 32.418 84.9199 32.9994 86.0308C33.5809 87.1417 34.4671 88.0637 35.554 88.6887C33.8671 89.1692 32.3606 90.1394 31.2253 91.4766L19.4295 90.3971ZM33.3034 91.6109C34.903 90.5127 36.7538 89.8361 38.6845 89.6434C38.6079 90.4611 38.6917 91.286 38.9312 92.0716L33.3034 91.6109ZM40.6725 92.2556C40.3565 91.4596 40.2154 90.6049 40.2585 89.7495L50.2829 90.6265C50.2347 91.489 49.9423 92.32 49.44 93.0227L40.6725 92.2556ZM77.8379 90.9157C77.2213 95.6115 71.9714 94.9939 71.9714 94.9939L72.8883 84.5137C72.898 84.4268 72.8901 84.3386 72.8648 84.2547C72.8394 84.1709 72.7973 84.093 72.7411 84.0259C72.6847 83.9588 72.6153 83.9037 72.5372 83.8643C72.4589 83.8248 72.3735 83.8016 72.2861 83.7961C72.111 83.7808 71.9372 83.8357 71.8025 83.9486C71.668 84.0616 71.5837 84.2233 71.5684 84.3983L70.657 94.8156L58.8414 93.7818C57.9329 92.2982 56.6374 91.0901 55.094 90.2874C56.2719 89.859 57.3037 89.1044 58.069 88.1117C58.8343 87.119 59.3014 85.9291 59.416 84.6809L59.4723 84.0367C60.1812 83.8245 60.8095 83.4034 61.2751 82.8283C61.7407 82.2532 62.0218 81.551 62.0817 80.8135C62.117 80.4234 62.0872 80.0302 61.9936 79.65L65.5445 79.9607C67.003 80.0883 68.4525 79.6313 69.5741 78.6901C70.6955 77.7491 71.3973 76.401 71.5249 74.9425L71.6156 73.9055C74.8194 74.5657 79.0159 77.4502 78.7589 80.3885L77.8379 90.9157Z" fill="black"/>
<path id="Vector_3" d="M67.0039 63.1C66.7398 63.4133 66.4042 63.6586 66.0255 63.815C65.6466 63.9714 65.2357 64.0344 64.8275 63.9987C64.4193 63.963 64.0256 63.8296 63.6797 63.6098C63.3338 63.39 63.0459 63.0902 62.8402 62.7357C62.706 62.5789 62.5156 62.481 62.31 62.463C62.1043 62.445 61.8998 62.5083 61.7403 62.6394C61.6603 62.706 61.5942 62.7878 61.546 62.88C61.4978 62.9723 61.4683 63.0732 61.4592 63.1769C61.4501 63.2806 61.4617 63.3851 61.4931 63.4843C61.5246 63.5835 61.5755 63.6755 61.6427 63.755C61.9817 64.2692 62.4325 64.7001 62.9615 65.0155C63.4905 65.3309 64.0839 65.5226 64.6974 65.5763C65.311 65.6299 65.9286 65.5442 66.5043 65.3255C67.08 65.1067 67.5988 64.7606 68.022 64.3131C68.1828 64.1781 68.2835 63.9847 68.3018 63.7755C68.3201 63.5663 68.2545 63.3584 68.1196 63.1976C67.9846 63.0367 67.7912 62.936 67.582 62.9177C67.3727 62.8994 67.1648 62.965 67.0039 63.1ZM47.6572 81.008C47.4361 81.2793 47.152 81.4923 46.8296 81.6286C46.5072 81.7648 46.1563 81.8201 45.8077 81.7896C45.4591 81.7591 45.1232 81.6437 44.8293 81.4536C44.5355 81.2634 44.2926 81.0043 44.122 80.6987C43.9878 80.5419 43.7974 80.4441 43.5917 80.4261C43.386 80.4081 43.1815 80.4714 43.0221 80.6025C42.9421 80.6691 42.876 80.7509 42.8278 80.8432C42.7796 80.9354 42.75 81.0362 42.7409 81.1399C42.7318 81.2436 42.7435 81.3482 42.7749 81.4474C42.8064 81.5466 42.8573 81.6386 42.9245 81.7181C43.2502 82.1628 43.6615 82.5379 44.1343 82.8213C44.6071 83.1047 45.1318 83.2905 45.6775 83.3681C46.2285 83.3865 46.7775 83.2945 47.2923 83.0976C47.8071 82.9006 48.2773 82.6026 48.6752 82.2213C48.7549 82.1543 48.8206 82.0725 48.8686 81.9803C48.9166 81.888 48.946 81.7872 48.9551 81.6836C48.9641 81.58 48.9527 81.4757 48.9214 81.3765C48.8901 81.2773 48.8397 81.1853 48.7728 81.1056C48.7059 81.026 48.6241 80.9603 48.5319 80.9123C48.4396 80.8643 48.3388 80.8349 48.2353 80.8258C48.1317 80.8167 48.0273 80.8282 47.9281 80.8595C47.829 80.8907 47.7369 80.9412 47.6572 81.008Z" fill="black"/>
<path id="Vector_4" d="M59.4141 30.1229C58.9621 30.0833 58.6872 29.7556 58.7267 29.3036L58.7531 29.0023L58.8058 28.3996C59.5967 19.3591 56.8166 11.2209 52.7485 10.8649C48.6802 10.509 44.5425 17.8902 43.7383 27.0814L43.6592 27.9854C43.6197 28.4374 43.292 28.7124 42.8399 28.6728C42.3879 28.6333 42.113 28.3056 42.1525 27.8536L42.1789 27.5522L42.2316 26.9495C43.128 16.7037 47.7574 8.91 52.8803 9.3582C58.0032 9.8064 61.2221 18.1348 60.3125 28.5314L60.2334 29.4355C60.1939 29.8874 59.8662 30.1624 59.4141 30.1229Z" fill="black"/>
<path id="Vector_5" d="M52.7486 10.8649C52.2965 10.8254 52.0215 10.4977 52.0611 10.0457L52.2192 8.23756C52.2588 7.78554 52.5865 7.51056 53.0386 7.55011C53.4905 7.58965 53.7655 7.91736 53.726 8.36939L53.5678 10.1775C53.5283 10.6295 53.2005 10.9045 52.7486 10.8649Z" fill="black"/>
<path id="Vector_6" d="M59.4139 30.1229L59.2633 30.1097C58.9619 30.0833 58.6738 29.9063 58.5494 29.5918C58.1049 27.731 55.0726 25.9474 51.4564 25.631C47.8402 25.3147 44.5574 26.3938 43.7965 28.1492C43.6195 28.4374 43.305 28.5617 43.0036 28.5354L42.8529 28.5222L42.5515 28.4958C42.2502 28.4695 42.1259 28.1549 42.1391 28.0042C41.721 25.842 40.0447 24.1771 37.7845 23.9794C36.5791 23.8739 35.4849 24.2337 34.515 24.9079C34.2004 25.0323 33.8859 25.1566 33.5977 24.9796C33.3096 24.8025 33.1852 24.4879 33.2116 24.1866C35.0836 14.9371 43.5383 8.54088 52.8801 9.35819C62.2219 10.1755 69.4374 17.9426 69.6748 27.3767C69.6484 27.6781 69.4714 27.9662 69.1569 28.0906C68.8424 28.2148 68.541 28.1885 68.266 27.8608C67.4279 27.0284 66.4127 26.484 65.2073 26.3785C63.0978 26.194 61.0073 27.5294 60.22 29.5861C60.1937 29.8874 59.8791 30.0118 59.7284 29.9986L59.4271 29.9722C59.5646 30.136 59.5646 30.136 59.4139 30.1229ZM51.5882 24.1243C55.2044 24.4407 58.2631 25.9229 59.6116 27.8628C60.851 25.8456 63.079 24.6741 65.4898 24.885C66.3939 24.9641 67.2847 25.1939 67.9985 25.7118C67.1641 17.8956 60.734 11.5636 52.7483 10.8649C44.7625 10.1663 37.3305 15.2855 35.1515 22.838C35.9313 22.6026 36.8617 22.3803 37.7657 22.4594C40.1765 22.6704 42.3179 24.2242 43.0374 26.4127C44.6892 24.8871 47.972 23.8079 51.5882 24.1243Z" fill="black"/>
<path id="Vector_7" d="M52.2687 25.5264L50.7744 25.3957L49.2056 43.3272L50.6999 43.4579L52.2687 25.5264Z" fill="black"/>
</g>
<defs>
<clipPath id="clip0_783_126">
<rect width="90" height="90" fill="white" transform="translate(8.52246 0.618896) rotate(5)"/>
</clipPath>
</defs>
</svg>
