<svg width="28" height="96" viewBox="0 0 28 96" fill="none" xmlns="http://www.w3.org/2000/svg">
<g id="friendly-leave-policy 1" clip-path="url(#clip0_783_200)">
<path id="Vector" d="M31.1376 3.0696L93.7982 8.55169C89.0165 8.13334 84.7914 11.6786 84.3731 16.4603L78.7864 80.3164C78.2199 86.7917 72.4869 91.51 66.0116 90.9435C65.7127 90.9173 65.5134 90.8999 65.2145 90.8737C59.073 89.9349 54.8442 84.345 55.3758 78.2683L56.0382 70.6972L16.7881 67.2632L16.7969 67.1636L22.1545 10.515C22.5554 5.9325 26.5551 2.66868 31.1376 3.0696ZM62.8841 33.7532L63.869 22.4963L52.0478 15.3387L39.1634 20.3348L38.1785 31.5918C37.9258 34.4808 39.5135 38.133 41.6653 39.9274L49.2464 46.2121L57.8036 41.3393C60.4336 39.9633 62.6314 36.6422 62.8841 33.7532Z" stroke="black" stroke-width="1.5" stroke-miterlimit="10" stroke-linecap="square" stroke-linejoin="bevel"/>
<path id="Vector_2" d="M65.215 90.8736L13.0144 86.3067C6.53919 85.7401 1.82085 80.0071 2.27903 73.6227L2.94141 66.0518L55.939 70.6884L55.2766 78.2594C54.8446 84.3449 59.0735 89.9348 65.215 90.8736Z" stroke="black" stroke-width="1.5" stroke-miterlimit="10" stroke-linecap="square" stroke-linejoin="bevel"/>
<path id="Vector_3" d="M27.9805 51.7798L68.8245 55.3532" stroke="black" stroke-width="1.5" stroke-miterlimit="10" stroke-linecap="round"/>
<path id="Vector_4" d="M27.3535 58.9524L67.7991 62.4909" stroke="black" stroke-width="1.5" stroke-miterlimit="10" stroke-linecap="round"/>
</g>
<defs>
<clipPath id="clip0_783_200">
<rect width="97" height="87" fill="white" transform="translate(7.71484 0.0165405) rotate(5)"/>
</clipPath>
</defs>
</svg>
