<svg width="280" height="123" viewBox="0 0 280 123" fill="none" xmlns="http://www.w3.org/2000/svg">
<mask id="path-1-outside-1_314_944" maskUnits="userSpaceOnUse" x="-1.2207" y="-2" width="283" height="127" fill="black">
<rect fill="white" x="-1.2207" y="-2" width="283" height="127"/>
<path d="M16.6993 0.514994V108.975H65.3193V123H0.804297V0.514994H16.6993ZM100.886 0.514994V123H84.9908V0.514994H100.886ZM193.517 0.514994V14.914H144.897V53.623H181.549V67.835H144.897V123H129.002V0.514994H193.517ZM279.529 0.514994V14.914H230.909V53.623H275.789V67.835H230.909V108.601H279.529V123H215.014V0.514994H279.529Z"/>
</mask>
<path d="M16.6993 0.514996H18.6993V-1.485H16.6993V0.514996ZM16.6993 108.975H14.6993V110.975H16.6993V108.975ZM65.3193 108.975H67.3193V106.975H65.3193V108.975ZM65.3193 123V125H67.3193V123H65.3193ZM0.804297 123H-1.1957V125H0.804297V123ZM0.804297 0.514996V-1.485H-1.1957V0.514996H0.804297ZM14.6993 0.514996V108.975H18.6993V0.514996H14.6993ZM16.6993 110.975H65.3193V106.975H16.6993V110.975ZM63.3193 108.975V123H67.3193V108.975H63.3193ZM65.3193 121H0.804297V125H65.3193V121ZM2.8043 123V0.514996H-1.1957V123H2.8043ZM0.804297 2.515H16.6993V-1.485H0.804297V2.515ZM100.886 0.514996H102.886V-1.485H100.886V0.514996ZM100.886 123V125H102.886V123H100.886ZM84.9908 123H82.9908V125H84.9908V123ZM84.9908 0.514996V-1.485H82.9908V0.514996H84.9908ZM98.8858 0.514996V123H102.886V0.514996H98.8858ZM100.886 121H84.9908V125H100.886V121ZM86.9908 123V0.514996H82.9908V123H86.9908ZM84.9908 2.515H100.886V-1.485H84.9908V2.515ZM193.517 0.514996H195.517V-1.485H193.517V0.514996ZM193.517 14.914V16.914H195.517V14.914H193.517ZM144.897 14.914V12.914H142.897V14.914H144.897ZM144.897 53.623H142.897V55.623H144.897V53.623ZM181.549 53.623H183.549V51.623H181.549V53.623ZM181.549 67.835V69.835H183.549V67.835H181.549ZM144.897 67.835V65.835H142.897V67.835H144.897ZM144.897 123V125H146.897V123H144.897ZM129.002 123H127.002V125H129.002V123ZM129.002 0.514996V-1.485H127.002V0.514996H129.002ZM191.517 0.514996V14.914H195.517V0.514996H191.517ZM193.517 12.914H144.897V16.914H193.517V12.914ZM142.897 14.914V53.623H146.897V14.914H142.897ZM144.897 55.623H181.549V51.623H144.897V55.623ZM179.549 53.623V67.835H183.549V53.623H179.549ZM181.549 65.835H144.897V69.835H181.549V65.835ZM142.897 67.835V123H146.897V67.835H142.897ZM144.897 121H129.002V125H144.897V121ZM131.002 123V0.514996H127.002V123H131.002ZM129.002 2.515H193.517V-1.485H129.002V2.515ZM279.529 0.514996H281.529V-1.485H279.529V0.514996ZM279.529 14.914V16.914H281.529V14.914H279.529ZM230.909 14.914V12.914H228.909V14.914H230.909ZM230.909 53.623H228.909V55.623H230.909V53.623ZM275.789 53.623H277.789V51.623H275.789V53.623ZM275.789 67.835V69.835H277.789V67.835H275.789ZM230.909 67.835V65.835H228.909V67.835H230.909ZM230.909 108.601H228.909V110.601H230.909V108.601ZM279.529 108.601H281.529V106.601H279.529V108.601ZM279.529 123V125H281.529V123H279.529ZM215.014 123H213.014V125H215.014V123ZM215.014 0.514996V-1.485H213.014V0.514996H215.014ZM277.529 0.514996V14.914H281.529V0.514996H277.529ZM279.529 12.914H230.909V16.914H279.529V12.914ZM228.909 14.914V53.623H232.909V14.914H228.909ZM230.909 55.623H275.789V51.623H230.909V55.623ZM273.789 53.623V67.835H277.789V53.623H273.789ZM275.789 65.835H230.909V69.835H275.789V65.835ZM228.909 67.835V108.601H232.909V67.835H228.909ZM230.909 110.601H279.529V106.601H230.909V110.601ZM277.529 108.601V123H281.529V108.601H277.529ZM279.529 121H215.014V125H279.529V121ZM217.014 123V0.514996H213.014V123H217.014ZM215.014 2.515H279.529V-1.485H215.014V2.515Z" fill="white" mask="url(#path-1-outside-1_314_944)"/>
</svg>
