<svg width="170" height="70" viewBox="0 0 170 70" fill="none" xmlns="http://www.w3.org/2000/svg">
<path d="M37.74 30.7608V47.5104C37.7422 47.975 37.6159 48.4313 37.3747 48.8301C37.1335 49.2288 36.7866 49.5548 36.3715 49.7728L36.1108 49.8988L32.5436 51.5956C32.8423 51.3569 33.0825 51.0547 33.2463 50.7114C33.4102 50.3681 33.4935 49.9927 33.49 49.6132V32.8664C33.4904 32.2762 33.3334 31.6964 33.035 31.1852C32.7366 30.674 32.3072 30.2495 31.79 29.9544L16.9376 21.3948C16.5939 21.1942 16.2077 21.0751 15.8095 21.0469C15.4112 21.0187 15.0118 21.0822 14.6426 21.2324L18.6546 19.2444L18.8558 19.1464C19.2302 18.9863 19.6375 18.9159 20.0447 18.9407C20.4518 18.9655 20.8473 19.0849 21.199 19.2892L36.0456 27.8488C36.5618 28.1446 36.99 28.5694 37.2875 29.0805C37.5849 29.5917 37.7409 30.1712 37.74 30.7608Z" fill="#0066F9"/>
<path d="M45.4126 26.9696V43.7192C45.4149 44.1838 45.2886 44.6401 45.0474 45.0389C44.8062 45.4376 44.4593 45.7636 44.0441 45.9816L43.7835 46.1076H43.7693L40.2021 47.8044C40.5008 47.5657 40.741 47.2635 40.9048 46.9202C41.0687 46.5769 41.152 46.2015 41.1485 45.822V29.0752C41.1489 28.485 40.9919 27.9052 40.6935 27.394C40.3951 26.8828 39.9657 26.4583 39.4485 26.1632L24.6103 17.6036C24.2665 17.403 23.8804 17.2839 23.4821 17.2557C23.0839 17.2275 22.6845 17.291 22.3153 17.4412L26.3273 15.4532L26.5285 15.3552C26.9029 15.1951 27.3102 15.1247 27.7174 15.1495C28.1245 15.1743 28.52 15.2937 28.8716 15.498L43.7183 24.0576C44.2344 24.3534 44.6627 24.7782 44.9601 25.2893C45.2575 25.8005 45.4136 26.38 45.4126 26.9696Z" fill="#0066F9"/>
<path d="M26.146 53.9448L10.8999 45.1556C10.5036 44.9279 10.1752 44.6009 9.94788 44.2075C9.72052 43.8142 9.60225 43.3686 9.60503 42.9156V25.7264C9.60524 25.2732 9.72642 24.8281 9.95634 24.436C10.1863 24.0439 10.5168 23.7187 10.9146 23.4932C11.3123 23.2677 11.7632 23.1498 12.2218 23.1516C12.6804 23.1534 13.1304 23.2746 13.5264 23.5032L28.373 32.0628C28.8898 32.3576 29.3189 32.7817 29.6174 33.2924C29.9158 33.803 30.0729 34.3823 30.073 34.972V51.7216C30.0734 52.1756 29.9524 52.6216 29.7221 53.0145C29.4919 53.4074 29.1607 53.7332 28.7621 53.9589C28.3635 54.1846 27.9115 54.3021 27.4521 54.2997C26.9927 54.2972 26.5421 54.1748 26.146 53.9448Z" fill="#0066F9"/>
<path d="M73.6667 34.1236V45.36H69.0823V34.342C69.0823 32.8888 68.799 31.822 68.2323 31.1668C67.6657 30.5116 66.8015 30.17 65.6257 30.17C65.0007 30.1447 64.3773 30.2495 63.796 30.4777C63.2146 30.7059 62.6883 31.0523 62.2512 31.4944C61.3936 32.3755 60.9648 33.5421 60.9648 34.9944V45.3544H56.4202V32.2364C56.4366 30.5037 56.342 28.7717 56.1368 27.0508H60.4322L60.7608 30.0608C61.3649 28.9809 62.2617 28.0888 63.3505 27.4848C64.4782 26.8729 65.7475 26.5612 67.0338 26.5804C71.4557 26.5804 73.6667 29.0948 73.6667 34.1236Z" fill="black"/>
<path d="M78.5513 27.0508H83.1017V45.36H78.5513V27.0508Z" fill="black"/>
<path d="M100.79 45.36L92.6812 36.9096V45.36H88.1308V18.6732H92.6812V35.14L100.314 27.0872H105.856L97.5262 35.84L106.516 45.36H100.79Z" fill="black"/>
<path d="M126.151 27.0508C125.914 28.7691 125.804 30.5022 125.823 32.2364V53.2H121.233V42.574C120.681 43.5559 119.844 44.3517 118.83 44.8588C117.732 45.4041 116.517 45.6779 115.288 45.6568C113.774 45.6835 112.283 45.2813 110.993 44.4976C109.724 43.6972 108.717 42.5505 108.094 41.1964C107.382 39.636 107.03 37.938 107.066 36.2264C107.034 34.4959 107.392 32.7801 108.114 31.2032C108.744 29.8197 109.754 28.639 111.03 27.7956C112.293 26.9815 113.772 26.5584 115.28 26.5804C116.602 26.5557 117.907 26.8805 119.059 27.5212C120.135 28.1222 120.985 29.0515 121.482 30.17L121.833 27.0508H126.151ZM120.06 40.544C120.893 39.5024 121.308 38.0389 121.306 36.1536C121.306 34.2179 120.891 32.7311 120.06 31.6932C119.229 30.6553 118.041 30.1355 116.498 30.1336C114.987 30.1336 113.806 30.6712 112.956 31.7464C112.106 32.8216 111.685 34.3149 111.693 36.2264C111.693 38.1136 112.114 39.5649 112.956 40.5804C113.799 41.5959 114.992 42.1036 116.535 42.1036C118.054 42.1036 119.229 41.5837 120.06 40.544Z" fill="black"/>
<path d="M132.685 27.0508H137.235V45.36H132.685V27.0508Z" fill="black"/>
<path d="M154.924 45.36L146.815 36.9096V45.36H142.262V18.6732H146.815V35.14L154.448 27.0872H159.99L151.657 35.84L160.65 45.36H154.924Z" fill="black"/>
<path d="M137.493 18.746H132.39V23.2064H137.493V18.746Z" fill="#0066F9"/>
<path d="M83.3595 18.746H78.2567V23.2064H83.3595V18.746Z" fill="#0066F9"/>
</svg>
