<svg id="Layer_1" data-name="Layer 1" xmlns="http://www.w3.org/2000/svg" viewBox="0 0 170 70"><defs><style>.cls-1{fill:#0066f9;}.cls-2{fill:#fff;}</style></defs><title>nikqik-black-logo</title><path class="cls-1" d="M37.74,30.7608V47.51a2.5262,2.5262,0,0,1-.3653,1.32,2.5661,2.5661,0,0,1-1.0032.9427l-.2607.126-3.5672,1.6968a2.5231,2.5231,0,0,0,.7027-.8842,2.495,2.495,0,0,0,.2437-1.0982V32.8664a3.33,3.33,0,0,0-.455-1.6812,3.38,3.38,0,0,0-1.245-1.2308l-14.8524-8.56a2.6081,2.6081,0,0,0-2.295-.1624l4.012-1.988.2012-.098a2.62,2.62,0,0,1,2.3432.1428l14.8466,8.56a3.3807,3.3807,0,0,1,1.2419,1.2317A3.3305,3.3305,0,0,1,37.74,30.7608Z"/><path class="cls-1" d="M45.4126,26.97v16.75a2.5252,2.5252,0,0,1-.3652,1.32,2.5657,2.5657,0,0,1-1.0033.9427l-.2606.126h-.0142l-3.5672,1.6968a2.5231,2.5231,0,0,0,.7027-.8842,2.495,2.495,0,0,0,.2437-1.0982V29.0752a3.33,3.33,0,0,0-.455-1.6812,3.38,3.38,0,0,0-1.245-1.2308L24.61,17.6036a2.6082,2.6082,0,0,0-2.295-.1624l4.012-1.988.2012-.098a2.62,2.62,0,0,1,2.3431.1428l14.8467,8.56A3.38,3.38,0,0,1,44.96,25.2893,3.33,3.33,0,0,1,45.4126,26.97Z"/><path class="cls-1" d="M26.146,53.9448,10.9,45.1556a2.5869,2.5869,0,0,1-.952-.9481,2.55,2.55,0,0,1-.3429-1.2919V25.7264a2.5529,2.5529,0,0,1,.3513-1.29,2.5921,2.5921,0,0,1,.9583-.9428,2.6335,2.6335,0,0,1,2.6118.01l14.8466,8.56a3.38,3.38,0,0,1,1.2444,1.23,3.3292,3.3292,0,0,1,.4556,1.68v16.75a2.5515,2.5515,0,0,1-.3509,1.2929,2.592,2.592,0,0,1-.96.9444,2.6333,2.6333,0,0,1-2.6161-.0141Z"/><path class="cls-2" d="M73.6667,34.1236V45.36H69.0823V34.342a4.8279,4.8279,0,0,0-.85-3.1752,3.2619,3.2619,0,0,0-2.6066-.9968,4.4907,4.4907,0,0,0-3.3745,1.3244,4.8036,4.8036,0,0,0-1.2864,3.5v10.36H56.42V32.2364a40.554,40.554,0,0,0-.2834-5.1856h4.2954l.3286,3.01a6.6751,6.6751,0,0,1,2.59-2.576,7.4906,7.4906,0,0,1,3.6833-.9044Q73.6666,26.58,73.6667,34.1236Z"/><path class="cls-2" d="M78.5513,27.0508h4.55V45.36h-4.55Z"/><path class="cls-2" d="M100.79,45.36l-8.1088-8.45v8.45h-4.55V18.6732h4.55V35.14l7.6328-8.0528h5.542l-8.33,8.7528,8.99,9.52Z"/><path class="cls-2" d="M126.151,27.0508a35.1342,35.1342,0,0,0-.328,5.1856V53.2h-4.59V42.574a5.6567,5.6567,0,0,1-2.403,2.2848,7.6677,7.6677,0,0,1-3.542.798,8.0039,8.0039,0,0,1-4.295-1.1592,7.7222,7.7222,0,0,1-2.899-3.3012,11.3941,11.3941,0,0,1-1.028-4.97,11.5506,11.5506,0,0,1,1.048-5.0232,8.1211,8.1211,0,0,1,2.916-3.4076,7.639,7.639,0,0,1,4.25-1.2152,7.49,7.49,0,0,1,3.779.9408,5.6776,5.6776,0,0,1,2.423,2.6488l.351-3.1192ZM120.06,40.544a6.8524,6.8524,0,0,0,1.246-4.39,6.9872,6.9872,0,0,0-1.246-4.46,4.3063,4.3063,0,0,0-3.562-1.56,4.2629,4.2629,0,0,0-3.542,1.6128,7.0025,7.0025,0,0,0-1.263,4.48,6.6514,6.6514,0,0,0,1.263,4.354,4.3911,4.3911,0,0,0,3.579,1.5232A4.2538,4.2538,0,0,0,120.06,40.544Z"/><path class="cls-2" d="M132.685,27.0508h4.55V45.36h-4.55Z"/><path class="cls-2" d="M154.924,45.36l-8.109-8.45v8.45h-4.553V18.6732h4.553V35.14l7.633-8.0528h5.542L151.657,35.84l8.993,9.52Z"/><path class="cls-1" d="M137.493,18.746H132.39v4.46h5.103Z"/><path class="cls-1" d="M83.36,18.746H78.2567v4.46H83.36Z"/></svg>