<svg width="95" height="95" viewBox="0 0 95 95" fill="none" xmlns="http://www.w3.org/2000/svg">
<g id="open-work-culture 1" clip-path="url(#clip0_783_104)">
<path id="Vector" d="M86.3637 47.2699C86.8319 46.5078 87.391 45.8541 87.8505 45.1916C88.3099 44.5291 88.7607 43.9663 89.2202 43.3038C89.671 42.741 90.0308 42.0698 90.3907 41.3986C90.5078 41.208 90.6335 40.9179 90.8589 40.6365L92.8722 17.6244C92.8809 17.5248 92.7813 17.516 92.79 17.4164C92.4314 15.7789 91.5012 13.7903 88.9111 13.5637C88.2137 13.5027 87.5077 13.5413 86.7842 13.7791C86.6846 13.7704 86.5849 13.7617 86.4766 13.8526L86.377 13.8439L85.7706 13.8912L85.6149 13.3757C85.2301 12.0371 84.5116 11.0708 83.3597 10.4681C82.8791 10.2253 82.3897 10.0821 81.792 10.0298C81.0946 9.96876 80.3799 10.107 79.6564 10.3448L78.9329 10.5827L78.7038 9.75959C78.2368 8.213 77.2281 7.12094 75.5782 6.47467L74.0839 6.34394C72.6456 6.72002 71.7055 7.13968 71.1289 7.99267L70.7865 8.46462L70.2062 8.21309C69.9161 8.08733 69.6259 7.96156 69.3358 7.83579C68.7555 7.58426 68.2748 7.34144 67.7767 7.29787C67.5775 7.28044 67.3783 7.263 67.179 7.24557C65.7843 7.12356 64.5279 7.7163 63.6176 8.94163C63.2752 9.41358 62.7335 9.8681 61.837 9.78966C59.8446 9.61535 57.9518 9.44976 55.9594 9.27544C53.4689 9.05755 51.0781 8.84838 48.5876 8.63049C47.9899 8.5782 47.3099 8.31795 46.7384 7.9668C45.9763 7.4986 45.3225 6.93949 44.5604 6.47129C43.9976 6.02052 43.3351 5.56103 42.7635 5.20988C42.2007 4.75911 41.5295 4.39924 40.9579 4.04809C40.7674 3.93104 40.4773 3.80527 40.2954 3.5886L17.1837 1.56659C17.0754 1.65749 16.8761 1.64006 16.7678 1.73096C15.4379 2.01614 14.4716 2.73465 13.778 3.77817C13.184 4.83041 12.9711 6.11675 13.3646 7.35576L13.4381 7.66333L13.5203 7.87129L13.6585 8.58605L12.935 8.8239C11.4968 9.19998 10.6214 10.0268 10.0274 11.0791C9.42472 12.2309 9.41976 13.4351 9.90418 14.7824L10.2329 15.6142L9.40984 15.8434C7.87197 16.2107 6.7799 17.2194 6.12492 18.969L5.99419 20.4633C6.27065 21.8928 6.88954 22.8504 7.6342 23.5178L8.10615 23.8603L7.85461 24.4405C7.72884 24.7307 7.60308 25.0208 7.48603 25.2114C7.24322 25.692 7.00041 26.1727 6.95683 26.6708C6.60943 28.3469 7.08512 29.7938 8.49225 30.9208C8.9642 31.2632 9.41872 31.8049 9.24066 32.6927C9.07507 34.5855 8.90947 36.4783 8.73516 38.4707C8.51727 40.9612 8.29938 43.4517 8.08149 45.9421C8.01177 46.7391 7.6519 47.4103 7.4178 47.7913C6.9496 48.5534 6.3905 49.2072 5.93101 49.8697C5.48024 50.4325 5.02074 51.095 4.66959 51.6666C4.21011 52.329 3.85896 52.9006 3.49909 53.5718C3.37332 53.8619 3.25628 54.0525 3.03089 54.3339L1.00888 77.4456C1.09979 77.5539 1.09105 77.6536 1.08233 77.7532C1.31521 79.6808 3.07726 81.3407 5.06965 81.515C5.66737 81.5673 6.27379 81.52 6.89765 81.2734C7.00599 81.1825 7.20523 81.1999 7.30485 81.2087L7.40447 81.2174L8.01091 81.17L8.15787 81.7852C8.54266 83.1238 9.3608 84.0988 10.413 84.6928C10.8937 84.9356 11.4827 85.0875 11.9808 85.1311C12.6781 85.1921 13.3929 85.0539 14.1164 84.816L14.9482 84.4873L15.1773 85.3104C15.6443 86.857 16.653 87.949 18.3029 88.5953L19.7972 88.726C21.2268 88.4496 22.1756 87.9303 22.8605 86.9864L23.2029 86.5145L23.7832 86.766C23.9737 86.883 24.2639 87.0088 24.554 87.1346C25.0347 87.3774 25.4157 87.6115 25.8142 87.6463C26.1131 87.6725 26.4032 87.7983 26.7021 87.8244C28.1964 87.9551 29.4528 87.3624 30.3631 86.1371C30.8138 85.5742 31.3381 85.3189 32.135 85.3887C33.8286 85.5368 35.6217 85.6937 37.3153 85.8419C40.005 86.0772 42.6947 86.3125 45.4841 86.5565C46.0818 86.6088 46.7617 86.8691 47.3332 87.2202C48.0953 87.6884 48.7491 88.2475 49.4116 88.707C49.9744 89.1578 50.6369 89.6173 51.2085 89.9684C51.8709 90.4279 52.4425 90.7791 53.1137 91.1389C53.3042 91.256 53.5944 91.3818 53.8758 91.6071L76.8879 93.6204C76.9875 93.6292 76.9962 93.5295 77.0958 93.5383C78.6337 93.1709 79.7993 92.4698 80.3932 91.4176C80.9872 90.3653 81.1005 89.0703 80.7331 87.5324C80.7419 87.4328 80.6509 87.3245 80.6597 87.2248L80.6684 87.1252L80.621 86.5188L81.1366 86.3631C82.4752 85.9783 83.4502 85.1602 84.0442 84.108C84.6469 82.9561 84.6518 81.752 84.1674 80.4046L83.83 79.6724L84.48 79.127C86.0266 78.66 87.1186 77.6513 87.7649 76.0014L87.8956 74.5071C87.6192 73.0776 87.0003 72.12 86.156 71.4438L85.684 71.1014L85.9356 70.5211C86.0613 70.231 86.1784 70.0404 86.3042 69.7503C86.547 69.2696 86.7811 68.8886 86.8159 68.4901C87.2717 66.7231 86.7051 65.1678 85.207 63.9325C84.8347 63.5988 84.4885 62.9662 84.5408 62.3685C84.9243 57.9853 85.3165 53.5024 85.7174 48.9199C85.761 48.4218 86.0212 47.7419 86.3637 47.2699ZM8.67528 28.8288C8.05638 27.8712 7.95303 26.7579 8.53828 25.8053C9.13225 24.7531 10.1807 24.2425 11.3762 24.3471L19.2461 25.0356C19.4453 25.0531 20.0518 25.0057 20.1041 24.408C20.1215 24.2088 20.1389 24.0096 19.9484 23.8925C19.8662 23.6845 19.5674 23.6584 19.3681 23.641C18.3719 23.5538 17.4754 23.4754 16.4792 23.3882L11.9963 22.996C11.4982 22.9524 10.9005 22.9001 10.4024 22.8566C8.40996 22.6823 7.12859 21.2652 7.27676 19.5717C7.43364 17.7785 8.92418 16.8047 10.9166 16.979L19.6831 17.746C20.2808 17.7983 20.7054 17.5343 20.7403 17.1358C20.7577 16.9366 20.7665 16.837 20.5846 16.6203C20.4028 16.4036 20.1127 16.2778 19.8138 16.2517C19.4154 16.2168 19.0169 16.182 18.718 16.1558L17.5226 16.0512L16.3271 15.9467C15.6298 15.8856 14.7332 15.8072 13.737 15.72C13.0397 15.659 12.3598 15.3988 11.7969 14.948C10.853 14.2631 10.5766 12.8336 11.0797 11.673C11.5914 10.4128 12.757 9.71176 14.052 9.82507C15.3471 9.93837 16.6421 10.0517 18.0368 10.1737L20.1288 10.3567L23.1174 10.6182C23.217 10.6269 23.3166 10.6356 23.5159 10.653C24.014 10.6966 24.3477 10.3243 24.3826 9.92582C24.4349 9.3281 23.8459 9.17619 23.6466 9.15875L19.5622 8.80142C18.7653 8.73169 18.0679 8.67068 17.271 8.60096C15.7767 8.47022 14.7506 7.5774 14.4741 6.14786C14.1889 4.81795 14.9 3.57519 16.0481 3.07334C16.6719 2.82678 17.3867 2.68855 18.1837 2.75827C20.7738 2.98488 23.3639 3.21148 25.954 3.43809L32.6285 4.02203C33.2262 4.07432 33.8239 4.12662 34.322 4.17019L36.1152 4.32708C37.211 4.42295 38.2072 4.5101 39.0041 4.57983C39.7015 4.64084 40.481 4.9098 41.0438 5.36057C42.7498 6.51365 44.4471 7.76634 45.863 8.79365C46.6164 9.36147 47.4868 9.73877 48.5826 9.83464L62.5293 11.0548L61.1958 26.2966L60.0876 25.1958C59.8061 24.9704 59.633 24.6541 59.3516 24.4288C58.8884 23.9867 58.3342 23.4363 57.871 22.9943C57.1263 22.3268 56.2559 21.9495 55.3593 21.8711C53.5662 21.7142 51.8677 22.7702 51.321 24.4288C51.1779 24.9182 51.1343 25.4163 51.082 26.014C51.0558 26.3129 51.0297 26.6118 50.9948 27.0102L50.9338 27.7076L50.2365 27.6466C49.838 27.6117 49.4395 27.5768 49.041 27.542C48.6426 27.5071 48.1445 27.4635 47.746 27.4287C47.2479 27.3851 46.6502 27.3328 46.1521 27.2892L45.8532 27.2631C44.5582 27.1498 43.4188 27.552 42.3354 28.461C37.4604 32.5517 32.4857 36.6337 27.6193 40.6247L27.511 40.7156C26.9693 41.1702 26.3367 41.5163 25.8299 41.5724C25.6219 41.6546 25.3231 41.6284 25.1238 41.611C24.3269 41.5413 23.5648 41.0731 23.1364 40.2325C22.6259 39.184 22.8213 38.0969 23.5971 37.2614C24.4812 36.3349 25.3566 35.5081 26.2407 34.5816L27.3415 33.4733L27.6665 33.2006L27.8919 32.9192C28.2256 32.5468 28.2431 32.3476 28.1696 32.04C28.0961 31.7325 27.9056 31.6154 27.4075 31.5718L25.6143 31.4149L21.0319 31.014L16.4494 30.6131C14.6562 30.4562 12.9627 30.3081 11.1695 30.1512C10.065 30.1549 9.20327 29.678 8.67528 28.8288ZM64.8596 52.1142C64.8073 52.7119 64.4475 53.3831 64.0141 53.7467C61.4141 55.9284 58.8141 58.1101 56.1144 60.2831L50.3813 65.0013C49.7226 65.6464 48.8995 65.8755 48.1026 65.8058C47.3056 65.7361 46.5087 65.6663 45.7117 65.5966L45.0144 65.5356C44.0182 65.4485 42.9224 65.3526 41.9262 65.2654C41.4281 65.2218 40.7569 64.862 40.3933 64.4286C35.8481 59.0119 32.3115 54.6872 28.9481 50.6788C28.4936 50.1371 28.2644 49.314 28.3254 48.6167C28.4176 46.4163 28.7089 44.2334 28.8745 42.3407C28.9181 41.8426 29.2692 41.271 29.7026 40.9074C35.2277 36.2713 39.4527 32.726 43.4524 29.4622C43.9941 29.0077 44.9168 28.7873 45.5145 28.8396C45.913 28.8744 46.3115 28.9093 46.8096 28.9529C47.1084 28.979 47.4073 29.0052 47.7062 29.0313C48.005 29.0575 48.3039 29.0836 48.6027 29.1097L49.0012 29.1446C49.4084 29.0798 49.8069 29.1147 50.2054 29.1496C52.4966 29.35 53.8776 30.7758 55.0506 32.2838C57.3967 35.2997 59.9507 38.2335 62.3055 41.1498C63.0328 42.0165 63.76 42.8832 64.4872 43.7499C65.1235 44.5082 65.3527 45.3313 65.2742 46.2279C65.1958 47.1245 65.1174 48.0211 65.0389 48.9176C65.0427 50.0222 64.9468 51.118 64.8596 52.1142ZM32.6043 66.2567C32.3141 66.131 32.024 66.0052 31.7251 65.9791C31.6255 65.9703 31.6255 65.9703 31.5259 65.9616C31.3267 65.9442 31.1922 66.334 31.166 66.6328C31.0179 68.3264 30.861 70.1195 30.7128 71.813L30.3903 75.499C30.3293 76.1963 30.2683 76.8936 30.2073 77.591C30.0592 79.2845 29.9023 81.0776 29.7541 82.7712C29.6931 83.4685 29.4241 84.248 28.9734 84.8109C28.4055 85.5643 27.4654 85.9839 26.4692 85.8968C26.1703 85.8706 25.8715 85.8445 25.681 85.7274C24.5204 85.2244 23.7197 84.0501 23.8417 82.6554C23.9899 80.9619 24.138 79.2684 24.2862 77.5748L24.5302 74.7855C24.5651 74.387 24.4094 73.8715 23.9113 73.8279C23.5129 73.7931 23.1879 74.0658 23.1443 74.5639C23.0048 76.1578 22.8741 77.6521 22.7346 79.246C22.6126 80.6406 22.4906 82.0353 22.3773 83.3304C22.3424 83.7289 22.2989 84.2269 22.056 84.7076C21.553 85.8682 20.3787 86.6689 19.0837 86.5556C18.9841 86.5469 18.9841 86.5469 18.8844 86.5382C17.4985 86.3165 16.4985 85.1248 16.4213 83.7127C16.3827 83.0067 16.4437 82.3093 16.496 81.7116L17.141 74.3398C17.2455 73.1444 16.7474 73.1008 16.5482 73.0833C16.349 73.0659 15.8509 73.0223 15.7463 74.2178L15.5633 76.3098C15.45 77.6048 15.3279 78.9995 15.2059 80.3942C15.0752 81.8885 13.8748 82.988 12.3631 83.0565C12.2634 83.0478 12.1638 83.0391 12.1638 83.0391C10.8688 82.9258 9.75177 81.9246 9.56621 80.6034C9.50145 80.1962 9.54502 79.6981 9.57988 79.2997C9.73676 77.5065 9.89364 75.7134 10.0505 73.9202L10.3207 70.832C10.3381 70.6328 10.3556 70.4335 10.373 70.2343C10.3082 69.8271 10.1265 69.6104 9.72798 69.5756C9.3295 69.5407 9.00449 69.8134 8.96962 70.2119C8.88247 71.2081 8.7866 72.3039 8.69944 73.3001C8.61228 74.2963 8.52513 75.2925 8.43797 76.2887C8.37696 76.986 8.23378 77.4754 7.99096 77.9561C7.50533 78.9174 6.33978 79.6185 5.24396 79.5226C5.04472 79.5052 4.84549 79.4878 4.75458 79.3794C3.28644 78.9498 2.49445 77.6759 2.53428 76.0733C2.70859 74.0809 2.89162 71.9889 3.07464 69.8969L3.554 64.4178C3.82418 61.3296 4.1118 58.0422 4.38198 54.954C4.44299 54.2567 4.70325 53.5768 5.16273 52.9143C6.32452 51.1087 7.56848 49.511 8.69541 48.1039C9.26323 47.3505 9.64926 46.3804 9.74513 45.2846C9.99788 42.3957 10.2593 39.4071 10.5121 36.5181L10.9566 31.4375L26.1984 32.771L25.0976 33.8793L24.4389 34.5243C23.9968 34.9876 23.5548 35.4508 23.1214 35.8144C22.129 36.8318 21.0842 38.4469 22.0057 40.5351C22.5898 41.8912 23.7242 42.6931 25.4177 42.8413C25.7166 42.8674 26.0154 42.8936 26.4226 42.8288C26.5223 42.8375 26.5223 42.8375 26.6219 42.8463L26.8211 42.8637L27.6268 42.8338L27.5222 44.0292C27.4873 44.4277 27.4612 44.7266 27.4263 45.125C27.3566 45.922 27.2869 46.719 27.2172 47.5159C26.8523 49.3912 27.4189 50.9465 28.7825 52.5716C31.9728 56.2637 35.0549 60.0467 38.0547 63.6218C38.8641 64.6964 39.7819 65.6801 40.5913 66.7547C41.0458 67.2964 41.3011 67.8207 41.4567 68.3362C41.6597 69.4582 41.1654 70.5191 40.2165 71.0384C39.6923 71.2937 39.2851 71.3584 38.787 71.3149C38.1893 71.2626 37.7086 71.0197 37.2454 70.5777C36.3189 69.6936 35.3924 68.8095 34.4659 67.9254L33.3577 66.8246C33.2668 66.7162 33.1671 66.7075 33.1759 66.6079L33.085 66.4996L32.6043 66.2567ZM85.5645 67.8787C85.3341 69.3643 83.9345 70.4464 82.3405 70.307C81.3444 70.2198 80.3482 70.1326 79.2523 70.0368L77.6584 69.8973L74.6698 69.6359C74.2714 69.601 73.7646 69.657 73.6126 70.246C73.5952 70.4453 73.6861 70.5536 73.7683 70.7616C73.9501 70.9782 74.1406 71.0953 74.5391 71.1301L80.4167 71.6444C81.5125 71.7402 82.6083 71.8361 83.7041 71.932C85.1984 72.0627 86.298 73.2631 86.4748 74.6839C86.5607 75.9964 85.6418 77.3214 84.4115 77.6153C83.8959 77.7709 83.3891 77.827 82.6918 77.766C81.3967 77.6527 80.1017 77.5394 78.8066 77.426L74.1245 77.0164C73.1283 76.9293 73.0847 77.4274 73.0673 77.6266C73.0499 77.8258 73.1408 77.9342 73.223 78.1421C73.4048 78.3588 73.6949 78.4846 74.0934 78.5194C74.6911 78.5717 75.2888 78.624 75.9862 78.685L79.971 79.0336C80.3694 79.0685 80.8675 79.1121 81.3482 79.3549C82.6084 79.8667 83.2833 81.3311 82.9621 82.7083C82.5325 84.1765 81.2499 85.0681 79.7556 84.9373C78.4605 84.824 77.1655 84.7107 75.9701 84.6061L73.878 84.4231L71.786 84.2401L70.7898 84.1529C70.6902 84.1442 70.491 84.1268 70.2917 84.1094C69.7936 84.0658 69.4686 84.3385 69.4251 84.8366C69.3728 85.4343 69.8621 85.5775 70.161 85.6037L74.345 85.9697C75.0424 86.0307 75.8393 86.1004 76.5367 86.1614C77.4332 86.2399 78.1953 86.7081 78.7407 87.3581C79.1953 87.8998 79.4244 88.7229 79.3634 89.4202C79.2327 90.9145 77.7247 92.0875 76.0224 92.039L60.0833 90.6445C59.5852 90.6009 59.0871 90.5573 58.589 90.5138C58.0909 90.4702 57.5928 90.4266 57.0947 90.383C56.1982 90.3046 55.5008 90.2436 54.8035 90.1826C54.1062 90.1216 53.3266 89.8526 52.7638 89.4018C51.0578 88.2488 49.3605 86.9961 47.9446 85.9688C47.1913 85.4009 46.3208 85.0236 45.225 84.9278L31.2783 83.7076L32.6292 68.2666L33.7375 69.3673C34.0189 69.5927 34.192 69.909 34.4734 70.1344C34.928 70.6761 35.3912 71.1181 35.954 71.5689C36.6987 72.2364 37.5691 72.6136 38.4657 72.6921C40.2589 72.849 41.9574 71.793 42.504 70.1343C42.6472 69.6449 42.6908 69.1468 42.7431 68.5491C42.7692 68.2503 42.7954 67.9514 42.8302 67.5529L42.8912 66.8556L43.5886 66.9166C43.9871 66.9515 44.2859 66.9776 44.6844 67.0125C45.0829 67.0473 45.4813 67.0822 45.8798 67.1171C46.4775 67.1693 46.9756 67.2129 47.3741 67.2478C47.4737 67.2565 47.5734 67.2652 47.673 67.2739C49.0676 67.396 50.207 66.9937 51.3987 65.9938C55.7321 62.3576 60.1739 58.6306 64.3989 55.0853L65.9156 53.8127C66.4573 53.3581 67.0899 53.012 67.5967 52.9559C67.8046 52.8737 68.1035 52.8999 68.3027 52.9173C69.0997 52.987 69.8618 53.4552 70.2902 54.2958C70.8007 55.3443 70.6052 56.4314 69.8295 57.2669C68.9453 58.1934 68.07 59.0202 67.1858 59.9467L66.0851 61.055L65.8597 61.3364L65.6343 61.6178C65.3006 61.9902 65.2831 62.1894 65.3566 62.497C65.4301 62.8046 65.6206 62.9216 66.1187 62.9652L68.0115 63.1308L72.6936 63.5404L79.1688 64.1069L81.5597 64.3161L82.0578 64.3597C82.3567 64.3858 82.6555 64.412 82.9457 64.5377C84.821 64.9026 85.8035 66.2935 85.5645 67.8787ZM85.355 46.1779L85.238 46.3684C84.6701 47.1218 84.3925 48.0009 84.3053 48.9971L83.0851 62.9438L67.8433 61.6103L68.9441 60.5021L69.6029 59.857C70.0449 59.3938 70.487 58.9306 70.929 58.4673C72.2552 57.0776 72.6113 55.3019 71.8455 53.7292C71.2527 52.4727 70.1183 51.6708 68.624 51.5401C68.3251 51.5139 67.9267 51.4791 67.6191 51.5525C67.5195 51.5438 67.5195 51.5438 67.4198 51.5351C67.3202 51.5264 67.3202 51.5264 67.2206 51.5177L67.121 51.509L66.4237 51.4479L66.4847 50.7506C66.5195 50.3521 66.5544 49.9536 66.598 49.4556C66.6851 48.4594 66.7723 47.4632 66.8507 46.5666C67.0724 45.1806 66.6701 44.0412 65.6789 42.7499C61.6704 38.0828 57.779 33.2252 53.8701 28.5668L53.4156 28.0251C52.9611 27.4834 52.6062 26.9504 52.5588 26.344C52.3471 25.3217 52.8328 24.3603 53.7904 23.7414C54.215 23.4775 54.7218 23.4214 55.2199 23.465C55.8176 23.5173 56.3979 23.7688 56.8611 24.2109C57.6058 24.8783 58.3417 25.6454 58.9868 26.3041C59.5409 26.8545 60.0951 27.4049 60.5583 27.8469C60.6492 27.9553 60.7401 28.0636 60.8397 28.0723C61.1124 28.3973 61.3939 28.6227 61.6927 28.6489C61.7923 28.6576 61.892 28.6663 62.0003 28.5754C62.4162 28.411 62.4336 28.2118 62.5034 27.4148C62.5121 27.3152 62.5208 27.2156 62.5382 27.0163L63.8543 11.9738C63.8804 11.6749 63.8979 11.4757 63.924 11.1768C64.2714 9.50074 65.5627 8.50951 67.1566 8.64896L67.3559 8.66639C68.941 8.90546 70.0232 10.3051 69.8837 11.899C69.7356 13.5925 69.5874 15.2861 69.448 16.88L69.2562 19.0716C69.1342 20.4663 69.6323 20.5099 69.8315 20.5273L69.7967 20.9258L69.8228 20.6269C70.0221 20.6443 70.5202 20.6879 70.6509 19.1936L70.8601 16.8028C71.0431 14.7108 71.2261 12.6187 71.4091 10.5267C71.5312 9.13207 72.5323 8.01507 73.9619 7.73861C74.1698 7.65642 74.369 7.67386 74.5683 7.69129C75.6641 7.78716 76.608 8.47203 76.9193 9.50309C77.1572 10.2266 77.1958 10.9326 77.1522 11.4307C76.9779 13.4231 76.8036 15.4155 76.6293 17.4079L76.4288 19.6991C76.3068 21.0938 76.8049 21.1374 77.0041 21.1548C77.303 21.181 77.8011 21.2245 77.9318 19.7303L78.0974 17.8375C78.202 16.642 78.3153 15.347 78.4199 14.1516C78.5855 12.2588 79.8942 11.0683 81.5878 11.2165C83.2813 11.3647 84.3547 12.8639 84.1978 14.6571C84.0235 16.6495 83.8579 18.5422 83.6836 20.5346L83.4396 23.324C83.4221 23.5232 83.4134 23.6228 83.396 23.8221C83.3524 24.3202 83.6251 24.6452 84.0236 24.68C84.5217 24.7236 84.7471 24.4422 84.7907 23.9441C84.8691 23.0475 84.9388 22.2505 85.0173 21.354C85.1219 20.1585 85.2264 18.9631 85.331 17.7677C85.392 17.0703 85.6523 16.3904 86.0034 15.8189C86.5713 15.0655 87.5201 14.5462 88.5163 14.6334C88.8152 14.6595 89.0144 14.6769 89.3046 14.8027C90.6644 15.3232 91.3567 16.5884 91.2347 17.983C91.0517 20.075 90.8774 22.0674 90.6944 24.1594L90.1976 29.8377C89.9361 32.8263 89.6572 36.0142 89.3957 39.0027C89.3347 39.7001 89.0658 40.4796 88.615 41.0424C87.635 43.0647 86.4907 44.6711 85.355 46.1779Z" fill="black"/>
</g>
<defs>
<clipPath id="clip0_783_104">
<rect width="87" height="87" fill="white" transform="translate(7.7373 0.539368) rotate(5)"/>
</clipPath>
</defs>
</svg>
