<svg width="96" height="95" viewBox="0 0 96 95" fill="none" xmlns="http://www.w3.org/2000/svg">
<g id="salary-benefits 1" clip-path="url(#clip0_783_109)">
<path id="Vector" d="M44.817 24.0984L36.2972 8.18041L39.2286 6.11708C40.9346 4.964 43.1349 4.87188 44.8421 6.02748L45.3751 6.38238C47.299 7.71979 49.8891 7.49319 51.5515 5.84202C53.2139 4.19084 55.804 3.96424 57.7279 5.30165C59.6518 6.63906 62.2419 6.41246 63.9043 4.76128L64.3675 4.31923C65.8481 2.88473 68.0223 2.49375 69.9114 3.43268L73.0568 4.96436L67.4306 22.12L44.817 24.0984Z" stroke="black" stroke-width="1.4" stroke-miterlimit="10"/>
<path id="Vector_2" d="M31.8824 39.1833C32.9186 32.6682 37.2384 26.97 43.5306 24.3115L68.7343 22.1064C76.9305 23.9993 83.0632 30.9914 83.8041 39.4591L85.3729 57.3906" stroke="black" stroke-width="1.4" stroke-miterlimit="10"/>
<path id="Vector_3" d="M87.8744 85.9812L70.3414 87.5151L55.9962 88.7702L35.7734 90.5394" stroke="black" stroke-width="1.4" stroke-miterlimit="10"/>
<path id="Vector_4" d="M33.6725 66.5313L33.6289 66.0332" stroke="black" stroke-width="1.4" stroke-miterlimit="10"/>
<path id="Vector_5" d="M38.1555 66.1391L22.9137 67.4726C14.2468 68.2309 7.88353 75.8143 8.64178 84.4812L9.37389 92.8492L55.8962 88.7791L55.1641 80.411C54.5054 71.7354 46.8224 65.3809 38.1555 66.1391Z" stroke="black" stroke-width="1.4" stroke-miterlimit="10"/>
<path id="Vector_6" d="M39.2518 66.0432L31.3431 75.4683L21.918 67.5597L39.2518 66.0432Z" stroke="black" stroke-width="1.4" stroke-miterlimit="10"/>
<path id="Vector_7" d="M25.8056 39.7147L38.4573 38.6078L39.0064 44.8839C39.294 48.1713 36.8309 50.9967 33.643 51.2756L19.0986 52.5481L18.7151 48.1649C18.2407 43.8899 21.4223 40.0982 25.8056 39.7147Z" stroke="black" stroke-width="1.4" stroke-miterlimit="10"/>
<path id="Vector_8" d="M39.5206 50.7616L39.9477 55.643C40.4445 61.3213 36.2629 66.3047 30.5846 66.8015C24.9063 67.2983 19.9229 63.1167 19.4261 57.4384L18.999 52.557L39.5206 50.7616Z" stroke="black" stroke-width="1.4" stroke-miterlimit="10"/>
<path id="Vector_9" d="M69.5044 77.9518L88.0336 76.3307C90.7233 76.0954 93.0071 78.104 93.2337 80.6941C93.469 83.3838 91.4604 85.6675 88.8703 85.8941L70.3411 87.5152C67.6514 87.7506 65.3676 85.742 65.141 83.1519C64.9144 80.5617 66.9143 78.1784 69.5044 77.9518Z" stroke="black" stroke-width="1.4" stroke-miterlimit="10"/>
<path id="Vector_10" d="M68.6675 68.3883L87.1967 66.7672C89.8864 66.5319 92.1702 68.5405 92.3968 71.1306C92.6321 73.8203 90.6235 76.1041 88.0334 76.3307L69.5042 77.9518C66.8144 78.1871 64.5307 76.1785 64.3041 73.5884C64.0688 70.8986 66.0774 68.6149 68.6675 68.3883Z" stroke="black" stroke-width="1.4" stroke-miterlimit="10"/>
<path id="Vector_11" d="M67.8306 58.8249L86.3598 57.2038C89.0495 56.9685 91.3333 58.9771 91.5599 61.5672C91.7952 64.257 89.7866 66.5407 87.1965 66.7673L68.6673 68.3884C65.9775 68.6237 63.6938 66.6151 63.4672 64.025C63.2319 61.3353 65.2405 59.0515 67.8306 58.8249Z" stroke="black" stroke-width="1.4" stroke-miterlimit="10"/>
<path id="Vector_12" d="M31.6046 78.4569C31.3057 78.4831 31.1152 78.6001 30.9334 78.8168C30.7516 79.0335 30.6694 79.2414 30.6956 79.5403C30.7217 79.8391 30.8388 80.0296 31.0554 80.2115C31.2721 80.3933 31.48 80.4754 31.7789 80.4493C32.0778 80.4232 32.2683 80.3061 32.4501 80.0894C32.6319 79.8728 32.7141 79.6648 32.6879 79.366C32.6618 79.0671 32.5447 78.8766 32.3281 78.6948C32.1114 78.513 31.9035 78.4308 31.6046 78.4569Z" fill="black"/>
<path id="Vector_13" d="M71.8689 45.3216C71.7905 44.425 71.4219 43.6542 70.7806 43.2084C70.1393 42.7626 69.0908 42.252 67.553 41.8846C65.6079 41.4525 64.2519 40.8685 63.4848 40.1325C62.7177 39.3966 62.2321 38.4353 62.1188 37.1402C62.0055 35.8452 62.3081 34.7145 63.0266 33.7482C63.7538 32.8815 64.8061 32.2875 66.192 32.0659L65.9741 29.5754L67.2692 29.4621L67.4871 31.9526C68.8905 31.9302 70.1382 32.4233 71.0136 33.2502C71.889 34.077 72.4008 35.3372 72.5489 37.0307L71.0546 37.1615C70.9413 35.8664 70.5553 34.8964 69.7883 34.1604C69.0212 33.4245 68.0985 33.2041 67.0027 33.2999C65.8072 33.4045 64.9368 33.7818 64.3914 34.4318C63.7463 35.0906 63.5172 35.9137 63.6044 36.9099C63.6915 37.906 64.0601 38.6769 64.7014 39.1227C65.3514 39.6681 66.3912 40.079 67.9291 40.4464C69.3673 40.8225 70.5067 41.2247 71.1393 41.5709C71.8715 41.9083 72.3222 42.4712 72.773 43.0341C73.1242 43.6056 73.3844 44.2855 73.4629 45.1821C73.5762 46.4772 73.2736 47.6078 72.4554 48.5829C71.7282 49.4495 70.5763 50.0522 69.0908 50.2826L69.2912 52.5738L68.0958 52.6784L67.8953 50.3872C66.2927 50.427 64.9541 50.0422 63.9703 49.1244C62.9953 48.3063 62.3839 47.0548 62.2445 45.4609L63.7388 45.3302C63.8521 46.6252 64.3377 47.5866 65.096 48.2229C65.8544 48.8592 66.9851 49.1618 68.2801 49.0485C69.4756 48.9439 70.346 48.5666 70.991 47.9079C71.6273 47.1496 71.9561 46.3178 71.8689 45.3216Z" fill="black"/>
</g>
<defs>
<clipPath id="clip0_783_109">
<rect width="87" height="87" fill="white" transform="translate(0.924805 7.74768) rotate(-5)"/>
</clipPath>
</defs>
</svg>
