<svg width="48" height="48" viewBox="0 0 48 48" fill="none" xmlns="http://www.w3.org/2000/svg">
<g id="analysis-svgrepo-com 1">
<path id="secondary" d="M32 26C35.3137 26 38 23.3137 38 20C38 16.6863 35.3137 14 32 14C28.6863 14 26 16.6863 26 20C26 23.3137 28.6863 26 32 26Z" fill="#2CA9BC"/>
<path id="primary" d="M42 30L36.34 24.34M26 34H14M18 26H14M26 20C26 21.1867 26.3519 22.3467 27.0112 23.3334C27.6705 24.3201 28.6075 25.0892 29.7039 25.5433C30.8003 25.9974 32.0067 26.1162 33.1705 25.8847C34.3344 25.6532 35.4035 25.0818 36.2426 24.2426C37.0818 23.4035 37.6532 22.3344 37.8847 21.1705C38.1162 20.0067 37.9974 18.8003 37.5433 17.7039C37.0892 16.6075 36.3201 15.6705 35.3334 15.0112C34.3467 14.3519 33.1867 14 32 14C30.4087 14 28.8826 14.6321 27.7574 15.7574C26.6321 16.8826 26 18.4087 26 20Z" stroke="white" stroke-width="2" stroke-linecap="round" stroke-linejoin="round"/>
<path id="primary_2" d="M34 34V40C34 40.5304 33.7893 41.0391 33.4142 41.4142C33.0391 41.7893 32.5304 42 32 42H8C7.46957 42 6.96086 41.7893 6.58579 41.4142C6.21071 41.0391 6 40.5304 6 40V8C6 7.46957 6.21071 6.96086 6.58579 6.58579C6.96086 6.21071 7.46957 6 8 6H32" stroke="white" stroke-width="2" stroke-linecap="round" stroke-linejoin="round"/>
</g>
</svg>
