<svg width="49" height="49" viewBox="0 0 49 49" fill="none" xmlns="http://www.w3.org/2000/svg">
<g id="data-analytics-wheel-graphic-svgrepo-com 1" clip-path="url(#clip0_1005_26)">
<g id="Group">
<g id="Group_2">
<path id="Vector" d="M45.2423 20.739C43.3489 20.739 41.7849 22.1408 41.5238 23.9627H31.7534C31.6201 22.3471 30.9576 20.8449 29.8508 19.6516L29.8895 19.6903L37.3867 12.193L36.9838 11.7901L29.4882 19.2857C28.2895 18.1606 26.7733 17.4858 25.1421 17.3509V7.4811H25.1308C26.9581 7.22481 28.3658 5.65918 28.3658 3.76096C28.3658 1.68384 26.682 0 24.6048 0C22.5282 0 20.8439 1.68384 20.8439 3.76096C20.8439 5.65918 22.2521 7.22481 24.0794 7.4811H24.0676V17.344C22.3037 17.4552 20.6612 18.1853 19.404 19.4431C18.1806 20.6665 17.4531 22.2536 17.3123 23.9627H7.52522V24.5V25.0373H17.3053C17.4112 26.7238 18.0892 28.2943 19.2465 29.5268L11.8482 36.9257C11.3141 36.4695 10.65 36.21 9.93976 36.21C9.15049 36.21 8.40851 36.5173 7.85028 37.0756C6.69835 38.2281 6.69835 40.1021 7.85028 41.254C8.40851 41.8123 9.15049 42.1185 9.93976 42.1185C10.7296 42.1185 11.4715 41.8117 12.0298 41.2535C12.588 40.6952 12.8953 39.9533 12.8953 39.1635C12.8953 38.4886 12.6589 37.8552 12.2436 37.3351L19.6533 29.9265C20.875 31.0425 22.416 31.6958 24.0676 31.799V41.5184H24.0794C22.2521 41.7752 20.8439 43.3408 20.8439 45.239C20.8439 47.3162 22.5282 49 24.6048 49C26.682 49 28.3658 47.3162 28.3658 45.239C28.3658 43.3408 26.9581 41.7752 25.1308 41.5184H25.1421V31.793C26.7292 31.6619 28.2057 31.0188 29.3888 29.948L36.7941 37.3534L37.1971 36.9504L29.7977 29.5504C30.9695 28.3131 31.6534 26.734 31.7593 25.0373H41.5238C41.7849 26.8597 43.3484 28.261 45.2423 28.261C47.3195 28.261 49.0033 26.5777 49.0033 24.5C49.0033 22.4229 47.3195 20.739 45.2423 20.739ZM31.136 25.7825C31.0887 26.0452 31.0227 26.3026 30.9453 26.5551C31.0237 26.301 31.0887 26.0436 31.136 25.7825ZM11.6499 40.8742C11.1932 41.3308 10.5861 41.5823 9.93976 41.5823C9.29341 41.5823 8.68682 41.3303 8.23013 40.8747C7.28774 39.9323 7.28774 38.3978 8.23013 37.4554C8.68682 36.9988 9.29341 36.7473 9.93976 36.7473C10.5861 36.7473 11.1932 36.9993 11.6499 37.4554C12.1072 37.9121 12.3581 38.5193 12.3581 39.1651C12.3581 39.8114 12.1066 40.418 11.6499 40.8742ZM24.3185 29.1319C25.4677 29.1845 26.5976 28.8052 27.4734 28.067C26.5981 28.8047 25.4752 29.1862 24.3185 29.1319ZM27.3826 27.4212C26.6223 28.1809 25.6106 28.5994 24.5328 28.5994C23.4551 28.5994 22.4428 28.1809 21.6836 27.4212C20.9239 26.6615 20.5054 25.6498 20.5054 24.572C20.5054 23.4947 20.9234 22.4825 21.6831 21.7228C22.4428 20.9631 23.4551 20.5451 24.5328 20.5451C25.6106 20.5451 26.6229 20.9636 27.3826 21.7228C28.9536 23.2933 28.9536 25.8496 27.3826 27.4212ZM31.208 23.9627C31.114 22.9284 30.7922 21.9114 30.2216 21.0023C30.7814 21.8915 31.1129 22.9016 31.208 23.9627ZM30.6358 27.3739C30.5171 27.6313 30.3833 27.8806 30.2329 28.1223C30.3838 27.88 30.5181 27.6302 30.6358 27.3739ZM30.9367 26.5906C30.8556 26.8479 30.7572 27.101 30.6455 27.3465C30.7578 27.0994 30.8561 26.8474 30.9367 26.5906Z" fill="white"/>
<path id="Vector_2" d="M3.76438 28.2609C5.84151 28.2609 7.52535 26.5771 7.52535 24.5C7.52535 22.4229 5.84151 20.739 3.76438 20.739C1.68726 20.739 0.00341797 22.4229 0.00341797 24.5C0.00341797 26.5771 1.68726 28.2609 3.76438 28.2609Z" fill="white"/>
<path id="Vector_3" d="M39.27 12.7899C40.0593 12.7899 40.8013 12.4826 41.3595 11.9249C42.5125 10.7724 42.5125 8.89786 41.3595 7.74593C40.8013 7.1877 40.0593 6.88037 39.2695 6.88037C38.4802 6.88037 37.7377 7.1877 37.1795 7.74593C36.6218 8.30416 36.3145 9.04615 36.3145 9.83541C36.3145 10.6241 36.6218 11.3661 37.1795 11.9249C37.7377 12.4826 38.4802 12.7899 39.27 12.7899ZM37.5593 8.12525C38.0166 7.66856 38.6226 7.41711 39.2695 7.41711C39.9164 7.41711 40.523 7.66856 40.9797 8.12525C41.9221 9.06764 41.9221 10.6016 40.9797 11.5445C40.523 12.0012 39.9164 12.2521 39.27 12.2521C38.6237 12.2521 38.0166 12.0007 37.5593 11.5445C37.1026 11.0873 36.8517 10.4802 36.8517 9.83488C36.8517 9.1896 37.1032 8.58248 37.5593 8.12525Z" fill="white"/>
<path id="Vector_4" d="M39.27 36.2101C38.4802 36.2101 37.7377 36.5174 37.1795 37.0756C36.6218 37.6333 36.3145 38.3759 36.3145 39.1651C36.3145 39.9544 36.6218 40.6969 37.1795 41.2552C37.7377 41.8134 38.4802 42.1202 39.27 42.1202C40.0604 42.1202 40.8024 41.8128 41.3595 41.2552C42.512 40.1032 42.5125 38.2281 41.3595 37.0762C40.8024 36.5174 40.0604 36.2101 39.27 36.2101ZM40.9797 40.8748C40.523 41.332 39.9164 41.5824 39.27 41.5824C38.6237 41.5824 38.0166 41.3304 37.5593 40.8748C37.1026 40.4175 36.8517 39.8115 36.8517 39.1646C36.8517 38.5177 37.1032 37.9117 37.5593 37.4544C38.0166 36.9977 38.6226 36.7468 39.27 36.7468C39.9158 36.7468 40.523 36.9988 40.9797 37.4544C41.9221 38.3979 41.9221 39.9318 40.9797 40.8748Z" fill="white"/>
<path id="Vector_5" d="M9.93976 12.7899C10.57 12.7899 11.1653 12.5868 11.6655 12.2242L19.1316 19.6902L19.5345 19.2873L12.0937 11.8465C12.6074 11.2974 12.8953 10.5898 12.8953 9.83541C12.8953 9.04615 12.588 8.30363 12.0298 7.74539C11.4721 7.18716 10.7301 6.88037 9.9403 6.88037C9.1505 6.88037 8.40797 7.1877 7.85028 7.74539C7.29312 8.30255 6.98633 9.04454 6.98633 9.83488C6.98633 10.6252 7.29312 11.3672 7.85028 11.9244C8.40797 12.4826 9.14996 12.7899 9.93976 12.7899ZM8.23013 8.12525C8.68682 7.66856 9.29341 7.41765 9.9403 7.41765C10.5861 7.41765 11.1932 7.6691 11.6499 8.12525C12.1072 8.58194 12.3581 9.18907 12.3581 9.83541C12.3581 10.4807 12.1061 11.0878 11.6499 11.545C11.1932 12.0017 10.5866 12.2526 9.93976 12.2526C9.29395 12.2526 8.68682 12.0012 8.23013 11.545C7.77398 11.0894 7.52361 10.4818 7.52361 9.83541C7.52361 9.18907 7.77452 8.5814 8.23013 8.12525Z" fill="white"/>
</g>
</g>
</g>
<defs>
<clipPath id="clip0_1005_26">
<rect width="49" height="49" fill="white" transform="translate(0.00341797)"/>
</clipPath>
</defs>
</svg>
