<svg width="32" height="40" viewBox="0 0 32 40" fill="none" xmlns="http://www.w3.org/2000/svg">
<g id="Frame 14">
<path id="Vector" fill-rule="evenodd" clip-rule="evenodd" d="M16.9637 0.000275748C18.3213 -0.00180423 19.5261 -0.00364413 20.6389 0.45729C21.7517 0.918224 22.6025 1.77149 23.5608 2.73294C25.46 4.63794 27.3622 6.54007 29.2672 8.43923C30.2285 9.39772 31.0819 10.2484 31.5427 11.3612C32.0037 12.474 32.0019 13.6788 31.9997 15.0364C31.9921 20.0682 31.9995 25.1 31.9995 30.1319C31.9997 31.9049 31.9997 33.4325 31.8353 34.6557C31.6589 35.9666 31.2615 37.2234 30.2421 38.2428C29.2229 39.262 27.9662 39.6596 26.6552 39.8358C25.4318 40.0002 23.9042 40.0002 22.1313 40H9.86825C8.09528 40.0002 6.56766 40.0002 5.34434 39.8358C4.03334 39.6596 2.77666 39.262 1.75734 38.2428C0.738034 37.2234 0.34056 35.9666 0.164302 34.6557C-0.000175144 33.4325 -9.51042e-05 31.9049 4.89425e-06 30.1319L2.49211e-05 10.0004C2.49211e-05 9.95641 4.89425e-06 9.91251 4.89425e-06 9.86879C-9.51042e-05 8.09583 -0.000175144 6.56823 0.164302 5.34491C0.34056 4.0339 0.738033 2.77722 1.75736 1.75791C2.77666 0.738586 4.03334 0.341112 5.34434 0.164854C6.56764 0.000375854 8.09526 0.000455888 9.86821 0.000555887C12.2334 0.000695885 14.5986 0.0039157 16.9637 0.000275748ZM23.4138 18.5861C24.1948 19.3671 24.1948 20.6334 23.4138 21.4144L16.2596 28.5687C15.0116 29.8167 12.988 29.8167 11.74 28.5687L8.58565 25.4144C7.80462 24.6334 7.80462 23.367 8.58565 22.586C9.3667 21.805 10.633 21.805 11.414 22.586L13.9998 25.1718L20.5855 18.5861C21.3665 17.8051 22.6329 17.8051 23.4138 18.5861Z" fill="white"/>
</g>
</svg>
