<svg width="47" height="31" viewBox="0 0 47 31" fill="none" xmlns="http://www.w3.org/2000/svg">
<g id="Group">
<g id="Group_2">
<path id="Vector" d="M4.38501 24.2737H19.3637C20.6417 24.2737 21.6778 23.238 21.6778 21.9614V2.31368C21.6778 1.03565 20.6417 0 19.3637 0H4.38501C3.10838 0 2.07227 1.03565 2.07227 2.31368V21.961C2.07227 23.238 3.10885 24.2737 4.38501 24.2737ZM11.9351 22.5128C11.1043 22.5128 10.4287 21.8362 10.4287 21.0036C10.4287 20.1733 11.1043 19.4982 11.9351 19.4982C12.7686 19.4982 13.4447 20.1728 13.4447 21.0036C13.4447 21.8362 12.7686 22.5128 11.9351 22.5128ZM11.9997 18.5812C10.6589 18.5812 9.57496 17.4897 9.57496 16.1503C9.57496 14.8122 10.6589 13.7217 11.9997 13.7217C13.3411 13.7217 14.4264 14.8122 14.4264 16.1503C14.4259 17.4897 13.3406 18.5812 11.9997 18.5812ZM4.874 3.35823H18.8751V6.90868H4.874V3.35823Z" fill="white"/>
<path id="Vector_2" d="M40.1116 15.7002C39.7895 15.6725 39.4941 15.5099 39.2991 15.2525C37.1242 12.3907 33.3271 10.9144 29.7533 11.7086C29.3683 11.7944 28.9647 11.6753 28.6885 11.394C27.1733 9.85247 25.2548 8.79948 23.1507 8.35034V21.961C23.1507 24.0487 21.4512 25.7458 19.3644 25.7458H4.38484C2.60797 25.7458 1.12084 24.5128 0.716708 22.8574C0.706863 22.8161 0.667481 22.7889 0.625286 22.7936C0.583092 22.7983 0.550742 22.8335 0.550274 22.8761C0.549805 22.9075 0.549805 22.9389 0.549805 22.9703C0.549805 24.3604 0.955343 29.0455 6.13873 30.9109C6.37174 30.9934 6.61647 31 6.86073 31H39.459H39.4623C39.7009 31 39.9367 30.9958 40.1575 30.9198C46.0662 28.8861 46.52 24.1035 46.52 22.6801C46.5205 19.0139 43.6958 16.0068 40.1116 15.7002Z" fill="white"/>
</g>
</g>
</svg>
