<svg width="47" height="50" viewBox="0 0 47 50" fill="none" xmlns="http://www.w3.org/2000/svg">
<g id="Group">
<path id="Vector" d="M23.4978 0.934448L28.8828 4.15704H35.1234L38.2437 9.77059L43.679 12.9932V19.4384L46.7993 24.9999L43.679 30.5615V37.0067L38.2437 40.2293L35.1234 45.8428H28.8828L23.4978 49.0654L18.1128 45.8428H11.8722L8.75192 40.2293L3.31658 37.0067V30.5615L0.196289 24.9999L3.31658 19.4384V12.9932L8.75192 9.77059L11.8722 4.15704H18.1128L23.4978 0.934448Z" fill="white"/>
<g id="Group_2">
<path id="Vector_2" d="M23.4979 42.6203C14.0868 42.6203 6.43701 34.7197 6.43701 24.9999C6.43701 15.2802 14.0868 7.37964 23.4979 7.37964C32.9091 7.37964 40.5589 15.2802 40.5589 24.9999C40.5589 34.7197 32.9091 42.6203 23.4979 42.6203ZM23.4979 8.88698C14.892 8.88698 7.8965 16.1118 7.8965 24.9999C7.8965 33.8881 14.892 41.1129 23.4979 41.1129C32.1039 41.1129 39.0994 33.8881 39.0994 24.9999C39.0994 16.1118 32.1039 8.88698 23.4979 8.88698Z" fill="#0066F9"/>
</g>
<g id="Group_3">
<path id="Vector_3" d="M21.6355 31.5491L14.2374 25.4677C13.6335 24.948 13.5328 24.0644 14.0361 23.4406C14.5394 22.8169 15.3949 22.713 15.9989 23.2327L22.3401 28.4824L30.7951 18.7107C31.2983 18.1389 32.2042 18.087 32.7578 18.6067C33.3114 19.1265 33.3618 20.0621 32.8585 20.6339L23.5479 31.3932C23.0447 31.9649 22.1891 32.0169 21.6355 31.5491Z" fill="#0066F9"/>
</g>
</g>
</svg>
