<svg width="47" height="48" viewBox="0 0 47 48" fill="none" xmlns="http://www.w3.org/2000/svg">
<g id="hierarchy-svgrepo-com 1" clip-path="url(#clip0_1005_34)">
<path id="Path 183" d="M41.6131 36.0436C42.2483 35.0854 42.5884 33.962 42.5913 32.8124C42.5864 31.5137 42.1514 30.2532 41.3542 29.228C40.557 28.2028 39.4425 27.4706 38.1851 27.1459V25.4686C38.1851 25.0791 38.0303 24.7055 37.7549 24.4301C37.4794 24.1546 37.1058 23.9999 36.7163 23.9999H24.9663V21.0624H29.3726C30.5412 21.0624 31.6619 20.5982 32.4882 19.7718C33.3146 18.9455 33.7788 17.8247 33.7788 16.6561C33.7728 15.0546 33.2434 13.499 32.2714 12.2263C31.2993 10.9535 29.9378 10.0334 28.3944 9.60613C29.0295 8.64795 29.3697 7.52447 29.3726 6.37488C29.3726 4.81673 28.7536 3.3224 27.6518 2.22063C26.55 1.11885 25.0557 0.499878 23.4976 0.499878C21.9394 0.499878 20.4451 1.11885 19.3433 2.22063C18.2415 3.3224 17.6226 4.81673 17.6226 6.37488C17.6255 7.52447 17.9656 8.64795 18.6007 9.60613C17.0573 10.0334 15.6958 10.9535 14.7238 12.2263C13.7517 13.499 13.2223 15.0546 13.2163 16.6561C13.2163 17.8247 13.6805 18.9455 14.5069 19.7718C15.3332 20.5982 16.4539 21.0624 17.6226 21.0624H22.0288V23.9999H10.2788C9.88927 23.9999 9.51569 24.1546 9.24024 24.4301C8.9648 24.7055 8.81006 25.0791 8.81006 25.4686V27.1459C7.5526 27.4706 6.43815 28.2028 5.64094 29.228C4.84372 30.2532 4.40868 31.5137 4.40381 32.8124C4.40671 33.962 4.74682 35.0854 5.382 36.0436C3.83854 36.4709 2.47707 37.391 1.505 38.6638C0.532936 39.9365 0.00357043 41.4921 -0.00244141 43.0936C-0.00244141 44.2622 0.461789 45.383 1.28812 46.2093C2.11445 47.0356 3.2352 47.4999 4.40381 47.4999H16.1538C17.3224 47.4999 18.4432 47.0356 19.2695 46.2093C20.0958 45.383 20.5601 44.2622 20.5601 43.0936C20.554 41.4921 20.0247 39.9365 19.0526 38.6638C18.0805 37.391 16.7191 36.4709 15.1756 36.0436C15.8108 35.0854 16.1509 33.962 16.1538 32.8124C16.1489 31.5137 15.7139 30.2532 14.9167 29.228C14.1195 28.2028 13.005 27.4706 11.7476 27.1459V26.9374H35.2476V27.1459C33.9901 27.4706 32.8757 28.2028 32.0784 29.228C31.2812 30.2532 30.8462 31.5137 30.8413 32.8124C30.8442 33.962 31.1843 35.0854 31.8195 36.0436C30.276 36.4709 28.9146 37.391 27.9425 38.6638C26.9704 39.9365 26.4411 41.4921 26.4351 43.0936C26.4351 44.2622 26.8993 45.383 27.7256 46.2093C28.552 47.0356 29.6727 47.4999 30.8413 47.4999H42.5913C43.7599 47.4999 44.8807 47.0356 45.707 46.2093C46.5333 45.383 46.9976 44.2622 46.9976 43.0936C46.9915 41.4921 46.4622 39.9365 45.4901 38.6638C44.5181 37.391 43.1566 36.4709 41.6131 36.0436ZM23.4976 3.43738C24.2766 3.43738 25.0238 3.74686 25.5747 4.29775C26.1256 4.84864 26.4351 5.5958 26.4351 6.37488C26.4351 7.15395 26.1256 7.90112 25.5747 8.452C25.0238 9.00289 24.2766 9.31238 23.4976 9.31238C22.7185 9.31238 21.9713 9.00289 21.4204 8.452C20.8695 7.90112 20.5601 7.15395 20.5601 6.37488C20.5601 5.5958 20.8695 4.84864 21.4204 4.29775C21.9713 3.74686 22.7185 3.43738 23.4976 3.43738ZM16.1538 16.6561C16.1538 15.4875 16.618 14.3668 17.4444 13.5404C18.2707 12.7141 19.3914 12.2499 20.5601 12.2499H26.4351C27.6037 12.2499 28.7244 12.7141 29.5507 13.5404C30.3771 14.3668 30.8413 15.4875 30.8413 16.6561C30.8413 17.0457 30.6866 17.4192 30.4111 17.6947C30.1357 17.9701 29.7621 18.1249 29.3726 18.1249H17.6226C17.233 18.1249 16.8594 17.9701 16.584 17.6947C16.3085 17.4192 16.1538 17.0457 16.1538 16.6561ZM17.6226 43.0936C17.6226 43.4832 17.4678 43.8567 17.1924 44.1322C16.9169 44.4076 16.5433 44.5624 16.1538 44.5624H4.40381C4.01427 44.5624 3.64069 44.4076 3.36524 44.1322C3.0898 43.8567 2.93506 43.4832 2.93506 43.0936C2.93506 41.925 3.39929 40.8043 4.22562 39.9779C5.05195 39.1516 6.1727 38.6874 7.34131 38.6874H13.2163C14.3849 38.6874 15.5057 39.1516 16.332 39.9779C17.1583 40.8043 17.6226 41.925 17.6226 43.0936ZM13.2163 32.8124C13.2163 33.5914 12.9068 34.3386 12.3559 34.8895C11.805 35.4404 11.0579 35.7499 10.2788 35.7499C9.49973 35.7499 8.75257 35.4404 8.20168 34.8895C7.65079 34.3386 7.34131 33.5914 7.34131 32.8124C7.34131 32.0333 7.65079 31.2861 8.20168 30.7353C8.75257 30.1844 9.49973 29.8749 10.2788 29.8749C11.0579 29.8749 11.805 30.1844 12.3559 30.7353C12.9068 31.2861 13.2163 32.0333 13.2163 32.8124ZM36.7163 29.8749C37.4954 29.8749 38.2425 30.1844 38.7934 30.7353C39.3443 31.2861 39.6538 32.0333 39.6538 32.8124C39.6538 33.5914 39.3443 34.3386 38.7934 34.8895C38.2425 35.4404 37.4954 35.7499 36.7163 35.7499C35.9372 35.7499 35.1901 35.4404 34.6392 34.8895C34.0883 34.3386 33.7788 33.5914 33.7788 32.8124C33.7788 32.0333 34.0883 31.2861 34.6392 30.7353C35.1901 30.1844 35.9372 29.8749 36.7163 29.8749ZM42.5913 44.5624H30.8413C30.4518 44.5624 30.0782 44.4076 29.8027 44.1322C29.5273 43.8567 29.3726 43.4832 29.3726 43.0936C29.3726 41.925 29.8368 40.8043 30.6631 39.9779C31.4895 39.1516 32.6102 38.6874 33.7788 38.6874H39.6538C40.8224 38.6874 41.9432 39.1516 42.7695 39.9779C43.5958 40.8043 44.0601 41.925 44.0601 43.0936C44.0601 43.4832 43.9053 43.8567 43.6299 44.1322C43.3544 44.4076 42.9808 44.5624 42.5913 44.5624Z" fill="white"/>
</g>
<defs>
<clipPath id="clip0_1005_34">
<rect width="47" height="47" fill="white" transform="translate(-0.00244141 0.499878)"/>
</clipPath>
</defs>
</svg>
