<svg width="52" height="52" viewBox="0 0 52 52" fill="none" xmlns="http://www.w3.org/2000/svg">
<g id="opentasks-svgrepo-com 1">
<path id="Vector" d="M30.8535 27.0834H42.0552C42.3821 27.0982 42.6924 27.2318 42.9278 27.4592C43.1632 27.6866 43.3074 27.9921 43.3335 28.3184V33.3017C43.3108 33.6246 43.1723 33.9285 42.9433 34.1574C42.7144 34.3863 42.4106 34.5248 42.0877 34.5475H7.20433C6.87391 34.5475 6.55703 34.4163 6.32339 34.1826C6.08975 33.949 5.9585 33.6321 5.9585 33.3017V28.3184C5.98368 27.9974 6.12332 27.6961 6.35199 27.4694C6.58065 27.2428 6.88313 27.1058 7.20433 27.0834H15.871M40.8093 6.59753L46.0418 11.9167L23.3893 34.5475L11.9168 23.0859L17.1385 17.8642L23.3677 24.0825L40.8093 6.59753ZM7.20433 37.9167H42.0552C42.3881 37.9299 42.7041 38.0673 42.9407 38.3019C43.1774 38.5366 43.3175 38.8513 43.3335 39.1842V44.1567C43.313 44.4804 43.1752 44.7856 42.9459 45.0149C42.7165 45.2443 42.4114 45.3821 42.0877 45.4025H7.20433C6.87391 45.4025 6.55703 45.2713 6.32339 45.0376C6.08975 44.804 5.9585 44.4871 5.9585 44.1567V39.1842C5.97382 38.8567 6.10938 38.5463 6.33923 38.3124C6.56909 38.0786 6.8771 37.9377 7.20433 37.9167Z" stroke="white" stroke-width="2" stroke-linecap="round" stroke-linejoin="round"/>
</g>
</svg>
