<svg width="43" height="42" viewBox="0 0 43 42" fill="none" xmlns="http://www.w3.org/2000/svg">
<g id="services-svgrepo-com 2" clip-path="url(#clip0_1005_48)">
<g id="Group">
<g id="Group_2">
<g id="Group_3">
<path id="Vector" d="M41.8163 22.4367C42.5688 21.7017 43.0002 20.6842 43.0002 19.6451C43.0002 18.6059 42.5688 17.5884 41.8163 16.8534L36.0647 11.2356L29.5357 17.6128L32.3099 20.3225L20.8067 31.5582L18.0325 28.8485L11.5034 35.2257L17.255 40.8436C18.0075 41.5786 19.0492 41.9999 20.1131 41.9999C21.177 41.9999 22.2187 41.5786 22.9712 40.8436L24.5713 39.2808C26.5999 41.0326 29.1729 41.9999 31.9035 41.9999C38.0219 41.9999 43.0002 37.1374 43.0002 31.1612C43.0002 28.4935 42.0098 25.9796 40.2163 23.9995L41.8163 22.4367ZM31.497 17.6128L36.0647 13.1513L37.1647 14.2257L32.597 18.6872L31.497 17.6128ZM13.4648 35.2257L18.0325 30.7642L19.1325 31.8386L14.5647 36.3001L13.4648 35.2257ZM23.5663 38.3459L21.9906 39.8857C21.4961 40.3687 20.8122 40.6451 20.1131 40.6451C19.414 40.6451 18.7302 40.3687 18.2357 39.8857L15.5454 37.258L20.1131 32.7965L20.8067 33.4739L34.2712 20.3225L33.5777 19.6451L38.1454 15.1836L40.8357 17.8113C41.3302 18.2943 41.6131 18.9622 41.6131 19.6451C41.6131 20.3279 41.3302 20.9959 40.8357 21.4789L39.2599 23.018L23.5663 38.3459ZM41.6131 31.1612C41.6131 36.3909 37.2576 40.6451 31.9035 40.6451C29.5426 40.6451 27.3101 39.8274 25.545 38.3297L39.2426 24.9506C40.776 26.674 41.6131 28.8546 41.6131 31.1612Z" fill="white"/>
<path id="Vector_2" d="M18.0323 28.4516V25.9289C18.9193 25.6783 19.7745 25.3321 20.5845 24.8952L22.4113 26.6802L27.3154 21.8901L25.4879 20.1058C25.9359 19.3146 26.2896 18.48 26.5463 17.6129H29.129V10.8387H26.5463C26.2896 9.97229 25.9352 9.13703 25.4879 8.34581L27.3154 6.56148L22.4113 1.77145L20.5845 3.55645C19.7745 3.11884 18.92 2.77335 18.0323 2.52271V0H11.0968V2.52271C10.2097 2.77335 9.35458 3.11952 8.54452 3.55645L6.71771 1.77145L1.81363 6.56148L3.64113 8.34581C3.1931 9.13703 2.83939 9.97161 2.58277 10.8387H0V17.6129H2.58277C2.83939 18.4793 3.19379 19.3146 3.64113 20.1058L1.81363 21.8901L6.71771 26.6802L8.54452 24.8952C9.35458 25.3328 10.209 25.6783 11.0968 25.9289V28.4516H18.0323ZM8.7935 23.4699L8.32744 23.1921L6.7184 24.7644L3.77568 21.8901L5.3854 20.3185L5.10105 19.8633C4.50113 18.9041 4.06003 17.8656 3.79024 16.777L3.66194 16.2581H1.3871V12.1935H3.66194L3.79024 11.6746C4.06003 10.5867 4.50044 9.54755 5.10105 8.58832L5.3854 8.1331L3.77568 6.56148L6.7184 3.68719L8.32744 5.25948L8.7935 4.98174C9.77556 4.39577 10.8388 3.96494 11.9533 3.70142L12.4839 3.57677V1.35484H16.6452V3.57677L17.1764 3.7021C18.2903 3.96561 19.3542 4.39577 20.3362 4.98242L20.8023 5.26016L22.4113 3.68787L25.354 6.56216L23.7443 8.13377L24.0287 8.589C24.6286 9.54823 25.0697 10.5867 25.3395 11.6753L25.4671 12.1935H27.7419V16.2581H25.4671L25.3388 16.777C25.069 17.8649 24.6286 18.9041 24.028 19.8633L23.7436 20.3185L25.3534 21.8901L22.4106 24.7644L20.8016 23.1921L20.3355 23.4699C19.3535 24.0558 18.2903 24.4867 17.1757 24.7502L16.6452 24.8748V27.0968H12.4839V24.8748L11.9526 24.7495C10.8388 24.486 9.77556 24.0558 8.7935 23.4699Z" fill="white"/>
<path id="Vector_3" d="M22.1936 14.2258C22.1936 10.1172 18.771 6.77417 14.5646 6.77417C10.3582 6.77417 6.93555 10.1172 6.93555 14.2258C6.93555 18.3343 10.3582 21.6774 14.5646 21.6774C18.771 21.6774 22.1936 18.3343 22.1936 14.2258ZM8.32264 14.2258C8.32264 10.8638 11.1225 8.12901 14.5646 8.12901C18.0067 8.12901 20.8065 10.8638 20.8065 14.2258C20.8065 17.5878 18.0067 20.3226 14.5646 20.3226C11.1225 20.3226 8.32264 17.5878 8.32264 14.2258Z" fill="white"/>
<path id="Vector_4" d="M21.0094 29.6082L21.9902 28.6501L20.6034 27.2955L19.6225 28.2535L21.0094 29.6082Z" fill="white"/>
<path id="Vector_5" d="M27.9447 20.1244L29.3315 21.479L30.3124 20.521L28.9255 19.1664L27.9447 20.1244Z" fill="white"/>
</g>
</g>
</g>
</g>
<defs>
<clipPath id="clip0_1005_48">
<rect width="43" height="42" fill="white"/>
</clipPath>
</defs>
</svg>
