<?xml version="1.0" encoding="UTF-8"?>
<svg version="1.1" xmlns="http://www.w3.org/2000/svg" width="512" height="512">
<path d="M0 0 C1.69853384 -0.00620685 3.39705977 -0.01503076 5.09556806 -0.02622539 C9.73545556 -0.04922495 14.37458219 -0.03507892 19.01445341 -0.01451623 C24.0288371 0.00116614 29.04310917 -0.01782642 34.05747986 -0.03231812 C43.86916156 -0.05510904 53.68055784 -0.04568898 63.49223377 -0.02481725 C71.46718823 -0.0085158 79.44206494 -0.00433797 87.41703415 -0.00878334 C88.55319451 -0.00941402 89.68935487 -0.01004469 90.85994434 -0.01069448 C93.16819563 -0.01204056 95.47644691 -0.01342014 97.78469817 -0.01483283 C119.41364656 -0.02676123 141.04243866 -0.00272416 162.67135148 0.03418525 C181.22353239 0.06508523 199.77553352 0.06744414 218.32772827 0.04838562 C239.88375146 0.02626673 261.43967392 0.02013484 282.99570215 0.04070824 C285.29472564 0.04287114 287.59374915 0.04502024 289.89277267 0.04715538 C291.02387502 0.04822175 292.15497737 0.04928811 293.32035554 0.05038679 C301.28527096 0.05685209 309.25013447 0.05209506 317.21504593 0.04313087 C326.92211931 0.03258856 336.62898194 0.040118 346.33601643 0.07058666 C351.28719782 0.08570027 356.23804671 0.09289823 361.18923759 0.07839584 C365.72429637 0.06535183 370.25869732 0.07551323 374.79368024 0.10395458 C376.43143269 0.11021826 378.06924367 0.10812475 379.70696814 0.09668414 C390.35284562 0.0284172 398.55720091 1.00396688 406.89608765 8.25517273 C407.59733765 9.08017273 408.29858765 9.90517273 409.02108765 10.75517273 C409.70171265 11.45642273 410.38233765 12.15767273 411.08358765 12.88017273 C416.40847351 20.78161627 417.60574545 28.99513586 417.41171265 38.32939148 C417.40605286 39.37923721 417.40039307 40.42908295 417.39456177 41.51074219 C417.37239979 44.82187504 417.32224203 48.13187407 417.27108765 51.44267273 C417.25099656 53.70502675 417.2327504 55.96739795 417.21640015 58.2297821 C417.17260168 63.73862413 417.10589592 69.2468174 417.02108765 74.75517273 C418.22644165 74.73946228 419.43179565 74.72375183 420.67367554 74.70756531 C425.16693377 74.65306086 429.66016304 74.61874821 434.15365601 74.59037781 C436.09446129 74.57533782 438.03523285 74.55490059 439.97592163 74.52885437 C442.77361397 74.49225978 445.57085498 74.47539825 448.3687439 74.46220398 C449.22943985 74.44672012 450.0901358 74.43123627 450.97691345 74.4152832 C457.81981644 74.41339303 462.52632477 75.5930449 467.83358765 80.19267273 C470.94967235 83.84294339 472.26961839 86.4316655 472.27835655 91.24426842 C472.28480544 92.14376508 472.29125434 93.04326174 472.29789865 93.97001588 C472.29480145 94.95424551 472.29170424 95.93847514 472.28851318 96.95252991 C472.2930443 98.00118717 472.29757541 99.04984443 472.30224383 100.13027918 C472.3149368 103.65551595 472.31326429 107.18059919 472.31161499 110.70585632 C472.31759715 113.22870076 472.32440197 115.75154337 472.33197021 118.27438354 C472.34782906 124.42274056 472.35407995 130.57104104 472.35519497 136.7194166 C472.35614521 141.71689206 472.3602543 146.71435487 472.36659622 151.71182632 C472.38420963 165.87955098 472.39343491 180.04724532 472.39193527 194.214981 C472.39181541 195.36071087 472.39181541 195.36071087 472.39169312 196.52958679 C472.39161135 197.29433892 472.39152959 198.05909105 472.39144535 198.84701748 C472.39063236 211.24232648 472.40977299 223.63751399 472.43796985 236.03278784 C472.46669152 248.75915178 472.48051055 261.48545645 472.4787823 274.21185362 C472.47811816 281.35718835 472.48362082 288.50239571 472.5051384 295.64770126 C472.52524258 302.366739 472.52468389 309.08546288 472.51010513 315.80452919 C472.50800895 318.27245412 472.5127658 320.74039566 472.52482605 323.20829201 C472.54020928 326.57379672 472.53101529 329.93836445 472.51556396 333.30384827 C472.52585109 334.28361645 472.53613822 335.26338464 472.54673707 336.27284276 C472.48902926 341.94921605 471.85217653 345.27262018 468.02108765 349.75517273 C463.18986375 354.11505771 459.92896139 354.87959516 453.5125885 354.89561462 C452.51666513 354.90007131 452.51666513 354.90007131 451.50062209 354.90461802 C449.27134725 354.91330357 447.04212612 354.91481315 444.81283569 354.91630554 C443.21623622 354.92093382 441.61963785 354.9259585 440.02304077 354.93135071 C435.68204533 354.94447581 431.34106535 354.95091989 427.00005317 354.95536137 C424.2881733 354.95829193 421.57629767 354.96239671 418.86441994 354.96686554 C410.38017537 354.9805408 401.89594047 354.9902073 393.41168565 354.99406743 C383.61675716 354.99854832 373.8219682 355.0160975 364.02708215 355.04506803 C356.45671162 355.06668206 348.88638036 355.07677156 341.3159793 355.07810855 C336.79416753 355.07915678 332.27248692 355.08506846 327.75070763 355.10292816 C323.49649828 355.11940404 319.24251876 355.12156674 314.98828888 355.11278915 C313.42823229 355.11201852 311.86816337 355.11636504 310.30813789 355.12624741 C308.17533128 355.13896413 306.04333902 355.1330924 303.91053772 355.12266541 C302.71794688 355.12413197 301.52535604 355.12559853 300.29662609 355.12710953 C295.58921137 354.59258344 292.24744592 353.05851148 288.99862671 349.60575867 C286.40663426 347.18016574 284.88797019 347.22042555 281.38046265 347.14579773 C279.77557983 347.09745789 279.77557983 347.09745789 278.13827515 347.04814148 C277.02710327 347.03396179 275.9159314 347.0197821 274.77108765 347.00517273 C273.64444702 346.97552429 272.5178064 346.94587585 271.35702515 346.91532898 C268.57830744 346.84468361 265.80042616 346.79195996 263.02108765 346.75517273 C263.38202515 347.80318054 263.74296265 348.85118835 264.11483765 349.93095398 C264.58382583 351.30977924 265.05256275 352.68868998 265.52108765 354.06767273 C265.75956421 354.7579657 265.99804077 355.44825867 266.2437439 356.1594696 C267.25317028 359.14448762 268.02108765 361.58176187 268.02108765 364.75517273 C269.20444702 364.69716492 270.3878064 364.6391571 271.60702515 364.57939148 C282.22421724 364.2097559 289.92581154 364.43779025 298.25546265 371.70439148 C306.31953659 379.90090459 308.51307254 389.08865763 308.51913452 400.38212585 C308.49915405 401.59835632 308.47917358 402.81458679 308.45858765 404.06767273 C308.46567749 405.30323914 308.47276733 406.53880554 308.48007202 407.81181335 C308.42893489 415.10082201 308.21295655 420.31348155 303.03062344 425.90142727 C298.7177668 428.55796269 295.05757395 428.31333499 290.08311462 428.26983643 C289.07443846 428.27678195 288.0657623 428.28372748 287.02652019 428.29088348 C283.64240517 428.30919791 280.25898764 428.29887645 276.87484741 428.28862 C274.45037307 428.29567619 272.02590313 428.30441993 269.60144043 428.31472778 C263.69715489 428.33492345 257.79304697 428.33624075 251.88874907 428.32810224 C247.08960607 428.3218018 242.29051928 428.32293966 237.49137688 428.32937431 C236.80827244 428.33027597 236.125168 428.33117762 235.42136342 428.3321066 C234.03362647 428.33395781 232.64588952 428.33582037 231.2581526 428.33769416 C218.24493099 428.35427296 205.2318178 428.34555291 192.21860271 428.32870858 C180.31477053 428.31401279 168.41119077 428.32863804 156.5073911 428.35747875 C144.28270213 428.38687619 132.05812964 428.39784396 119.83340687 428.38829654 C118.45047599 428.387274 117.0675451 428.38627939 115.68461418 428.38531303 C114.66399014 428.38459845 114.66399014 428.38459845 113.62274744 428.38386943 C108.8304649 428.38170567 104.03829269 428.39150729 99.24603462 428.40608406 C92.79370744 428.4254366 86.34173519 428.41852154 79.88942337 428.39388466 C77.51986998 428.38886656 75.15028098 428.39239224 72.780756 428.40503311 C69.54864175 428.42091302 66.31808448 428.40605883 63.08604431 428.38336182 C62.14586773 428.39519754 61.20569115 428.40703327 60.23702437 428.41922766 C55.86224495 428.3567106 52.94340261 428.15217691 49.4766531 425.33465481 C43.91453738 419.49185482 44.64861497 413.995858 44.65048218 406.18534851 C44.64614493 404.15696415 44.60990923 402.13082348 44.5718689 400.10282898 C44.53889447 388.9904476 46.37519981 380.71976021 54.08358765 372.51298523 C60.41087858 366.7724995 66.26051561 364.67446769 74.70858765 364.19267273 C77.12171265 364.04829773 79.53483765 363.90392273 82.02108765 363.75517273 C83.67108765 358.47517273 85.32108765 353.19517273 87.02108765 347.75517273 C85.74481506 347.75596832 84.46854248 347.75676392 83.15359497 347.75758362 C71.08990478 347.7611955 59.0266393 347.73325068 46.96308517 347.67489433 C40.76194024 347.64589792 34.56117171 347.62778385 28.35995483 347.63505554 C22.36851904 347.64167227 16.3778255 347.61902939 10.38654327 347.57661819 C8.10779718 347.56552882 5.82897544 347.56474887 3.5502243 347.57474899 C-20.91397353 347.66829409 -20.91397353 347.66829409 -31.08859253 338.9467926 C-39.04785237 330.77153206 -40.57425874 321.31341582 -40.48684692 310.3066864 C-40.49308689 309.08829921 -40.49932685 307.86991201 -40.5057559 306.614604 C-40.51888337 303.25851439 -40.51425059 299.90332933 -40.50181103 296.54729605 C-40.49272053 292.9180409 -40.50674998 289.28886195 -40.51773071 285.65962219 C-40.53547807 278.56019665 -40.53169291 271.46094067 -40.52008015 264.36150861 C-40.51103115 258.58950746 -40.50982816 252.8175537 -40.51417542 247.04554749 C-40.51478835 246.22273196 -40.51540128 245.39991644 -40.51603279 244.55216712 C-40.51731174 242.88041376 -40.51860859 241.20866041 -40.51992315 239.53690708 C-40.53131786 223.87631103 -40.51823268 208.21580878 -40.49672168 192.55522811 C-40.4788517 179.12996739 -40.48195612 165.70484502 -40.50039673 152.27958679 C-40.52182306 136.67342636 -40.53021933 121.06734805 -40.51794767 105.46117496 C-40.51667353 103.79571598 -40.51541605 102.13025698 -40.51417542 100.46479797 C-40.51355831 99.64545011 -40.51294121 98.82610225 -40.51230541 97.98192567 C-40.50885779 92.21966555 -40.51466814 86.45745771 -40.52409363 80.69520569 C-40.53533461 73.66888971 -40.53222961 66.64275237 -40.51097065 59.61645675 C-40.50048831 56.03437711 -40.49628984 52.45259489 -40.50956726 48.87051773 C-40.52376431 44.98139819 -40.50676494 41.0927612 -40.48684692 37.20365906 C-40.49576981 36.08010608 -40.5046927 34.9565531 -40.51388597 33.79895306 C-40.4170857 24.03822234 -37.99083789 15.72752712 -31.11571348 8.56374627 C-21.6635244 0.56347947 -11.76697614 -0.11024623 0 0 Z M-20.97891235 21.75517273 C-24.81800998 27.0165547 -24.39239945 32.50839002 -24.3396759 38.76490784 C-24.34223918 39.87667708 -24.34480245 40.98844631 -24.3474434 42.13390553 C-24.35238613 45.86051046 -24.3358797 49.58671057 -24.31948853 53.3132782 C-24.31864236 55.98408928 -24.31898508 58.65487554 -24.32081604 61.32568359 C-24.32238786 67.0763811 -24.31298823 72.82697637 -24.29610252 78.57764816 C-24.2717047 86.89210134 -24.26390646 95.20650517 -24.26013855 103.52099027 C-24.25357529 117.01118848 -24.23361754 130.50133222 -24.20523071 143.99150085 C-24.17768689 157.09468819 -24.15645489 170.19786072 -24.14370728 183.30107117 C-24.1429191 184.10897063 -24.14213093 184.91687009 -24.14131888 185.74925135 C-24.13740372 189.80231076 -24.13361261 193.85537028 -24.12988317 197.90842986 C-24.09879118 231.52405032 -24.0459588 265.13960484 -23.97891235 298.75517273 C-9.7878646 298.87927139 4.40318479 299.00318069 18.5942359 299.12689459 C25.18944208 299.18439295 31.78464777 299.24194763 38.37985229 299.29963684 C81.39808003 299.67586321 124.41643196 300.03182413 167.43502808 300.36317444 C170.02108765 300.75517273 170.02108765 300.75517273 171.86593628 302.06245422 C173.76482888 304.84502518 173.2540201 307.49411842 173.02108765 310.75517273 C172.69108765 311.74517273 172.36108765 312.73517273 172.02108765 313.75517273 C167.73063508 314.80174423 163.55900349 314.90749744 159.16871643 314.91339111 C158.38448581 314.91832909 157.60025518 314.92326707 156.79225999 314.92835468 C154.16826127 314.94369504 151.54428695 314.95208091 148.92025757 314.960495 C147.03776841 314.97007624 145.1552814 314.98008647 143.27279663 314.99049377 C138.16376522 315.01752218 133.05472459 315.03854294 127.94566131 315.05849576 C122.60582154 315.08036802 117.26601013 315.10775065 111.92619324 315.134552 C101.8151166 315.18446209 91.70402421 315.22940719 81.59291679 315.27257437 C70.08151382 315.32196111 58.57013931 315.37687392 47.05876386 315.43225396 C23.379565 315.54604817 -0.29966115 315.65289281 -23.97891235 315.75517273 C-23.11372273 321.51781188 -22.04054279 324.90548918 -17.61780357 328.8735466 C-12.85592377 331.91895999 -7.40407971 331.29189498 -1.94415283 331.2361908 C-0.72212768 331.2396085 0.49989747 331.24302619 1.75895369 331.24654746 C5.14341328 331.25199172 8.52694505 331.23951241 11.91129231 331.21943521 C15.5635723 331.20214568 19.21582414 331.20800797 22.86813354 331.21104431 C29.19344227 331.21314073 35.51858582 331.20060113 41.843853 331.17809296 C50.9890752 331.1455713 60.13421762 331.13516578 69.27949138 331.13014099 C84.11739295 331.12138859 98.95520651 331.09477452 113.7930603 331.05693054 C128.20581624 331.02020902 142.61854827 330.99189795 157.03134155 330.97489929 C157.91988989 330.9738484 158.80843824 330.9727975 159.72391228 330.97171476 C164.18154156 330.96649458 168.63917101 330.96143975 173.09680057 330.95646715 C210.07162567 330.91500684 247.04634838 330.84426237 284.02108765 330.75517273 C284.02108765 325.47517273 284.02108765 320.19517273 284.02108765 314.75517273 C281.38149048 314.76564636 278.74189331 314.77612 276.02230835 314.78691101 C267.30116286 314.8200503 258.5800146 314.84214226 249.85882282 314.85879707 C244.57116172 314.86923433 239.28356513 314.88339258 233.99594116 314.90605164 C228.89311781 314.92778193 223.79035651 314.93974179 218.68749046 314.94492722 C216.74064342 314.94862262 214.79379977 314.95583878 212.84697914 314.96663284 C210.12019128 314.98115014 207.39365988 314.98315056 204.6668396 314.98222351 C203.86195099 314.98941406 203.05706238 314.99660461 202.2277832 315.00401306 C198.07583555 314.98873837 194.69962195 314.77587812 191.02108765 312.75517273 C189.49616767 309.70533277 189.78546217 307.11283583 190.02108765 303.75517273 C191.85223972 301.1392412 192.93077131 300.78527817 196.02108765 299.75517273 C198.83463476 299.63491208 201.6252578 299.56979794 204.43978882 299.54985046 C205.29854111 299.53995087 206.1572934 299.53005127 207.04206848 299.51985168 C209.882703 299.48824507 212.72335425 299.46348252 215.5640564 299.43876648 C217.53275489 299.41819623 219.50144897 299.39719974 221.47013855 299.37579346 C226.65356883 299.32058011 231.83703892 299.27116755 237.02053833 299.22294617 C242.30916897 299.17272579 247.59774174 299.11704252 252.88632202 299.06181335 C263.26452781 298.95424078 273.64278382 298.85279377 284.02108765 298.75517273 C284.02108765 294.79517273 284.02108765 290.83517273 284.02108765 286.75517273 C281.82616323 286.7515902 281.82616323 286.7515902 279.5868969 286.7479353 C244.85972984 286.69058851 210.1326264 286.61786726 175.40553259 286.52618645 C171.13220228 286.51491814 166.85887163 286.50377971 162.58554077 286.49272156 C161.73478942 286.49051787 160.88403808 286.48831419 160.00750639 286.48604373 C146.22816815 286.4506612 132.44882998 286.42580246 118.66946314 286.40482571 C104.53294265 286.38307127 90.39648115 286.35002425 76.26001084 286.30647117 C67.53545742 286.27994829 58.81097754 286.26225761 50.0863858 286.25582669 C44.10544495 286.25057475 38.12459667 286.23436432 32.14370541 286.20950707 C28.69186275 286.19548536 25.24018583 286.18632372 21.78831291 286.19016457 C18.04611914 286.19181009 14.30444022 286.17517863 10.56231689 286.15390015 C8.92515207 286.16117151 8.92515207 286.16117151 7.25491321 286.16858977 C1.83206859 286.11754903 -2.4455051 286.07199678 -6.97891235 282.75517273 C-11.48617969 277.78387266 -11.54838157 273.48744477 -11.4801178 267.11454773 C-11.48565219 266.14993622 -11.49118659 265.18532471 -11.4968887 264.19148254 C-11.51049105 260.96244974 -11.4955278 257.73419041 -11.48062134 254.50517273 C-11.48440465 252.1889259 -11.48990479 249.87268133 -11.49699402 247.55644226 C-11.51096416 241.26724299 -11.49976766 234.97831682 -11.4832828 228.68913269 C-11.46944002 222.10958131 -11.47589151 215.53004591 -11.47941589 208.95048523 C-11.48284891 197.90096295 -11.46872462 186.8515433 -11.44546509 175.80204773 C-11.42154495 164.4374234 -11.4144611 153.07294272 -11.42495728 141.70829773 C-11.43758852 128.00741699 -11.43507165 114.3066373 -11.41929817 100.60575867 C-11.41353738 95.37462308 -11.41362181 90.14353558 -11.41836357 84.91239929 C-11.42313341 78.75312031 -11.41303108 72.59404032 -11.39140892 66.43479919 C-11.38584103 64.17329072 -11.38537576 61.91176313 -11.39036179 59.6502533 C-11.39631082 56.56521341 -11.38381624 53.48078272 -11.36659241 50.39579773 C-11.37260245 49.4991037 -11.3786125 48.60240967 -11.38480467 47.67854309 C-11.33380165 42.66082962 -10.92538612 39.01432801 -7.97891235 34.75517273 C-4.07567315 31.49941686 -0.38406617 31.32684567 4.51159668 31.3742218 C5.62963961 31.36720184 5.62963961 31.36720184 6.77026927 31.36004007 C9.26307434 31.34809214 11.75532946 31.3575462 14.24813843 31.36698914 C16.03709229 31.36292341 17.82604364 31.35758152 19.61499023 31.35105896 C24.47017527 31.33738168 29.32516908 31.34268521 34.18035746 31.35219622 C39.25852889 31.3597883 44.33668389 31.35274868 49.41485596 31.34803772 C57.94069359 31.34257985 66.46645326 31.34977366 74.99227905 31.36405945 C84.85635369 31.38039647 94.7202424 31.37508993 104.58431256 31.35858023 C113.04894992 31.34497874 121.51353124 31.34303884 129.978176 31.35089624 C135.03583696 31.35557877 140.09341044 31.35618148 145.15106583 31.34628677 C149.90352233 31.33763846 154.65573834 31.3435998 159.40816879 31.36096954 C161.15492096 31.36494538 162.90169328 31.36378167 164.6484375 31.35718155 C167.02741607 31.34901932 169.40561726 31.35922222 171.7845459 31.3742218 C172.48054937 31.36752964 173.17655283 31.36083747 173.89364731 31.35394251 C176.75869121 31.38913653 178.59164178 31.44227258 180.9462719 33.15788841 C182.28012783 35.1401325 182.45408095 36.37563496 182.45858765 38.75517273 C182.47792358 39.43579773 182.49725952 40.11642273 182.5171814 40.81767273 C182.02108765 42.75517273 182.02108765 42.75517273 180.43300247 44.35134602 C177.15101342 46.26158922 174.72490966 46.14024542 170.93435669 46.15390015 C169.86600082 46.16386269 169.86600082 46.16386269 168.77606201 46.17402649 C166.38200723 46.1927129 163.98844961 46.19002681 161.59432983 46.18754578 C159.85169398 46.196649 158.10906455 46.20706142 156.36644363 46.21867847 C151.69667069 46.24618877 147.02702141 46.25576259 142.35717773 46.26165009 C137.97636361 46.26988236 133.59569759 46.29425165 129.2149353 46.31730652 C116.40038263 46.37532751 103.58572316 46.40741251 90.77108765 46.44267273 C62.14358765 46.54579773 33.51608765 46.64892273 4.02108765 46.75517273 C4.02108765 120.67517273 4.02108765 194.59517273 4.02108765 270.75517273 C96.42108765 270.75517273 188.82108765 270.75517273 284.02108765 270.75517273 C284.68108765 267.78517273 285.34108765 264.81517273 286.02108765 261.75517273 C287.70858765 259.63017273 287.70858765 259.63017273 290.02108765 258.75517273 C293.58358765 258.75517273 293.58358765 258.75517273 297.02108765 259.75517273 C305.62341291 274.09238151 300.64962569 293.03938464 301.02108765 309.75517273 C352.17108765 309.75517273 403.32108765 309.75517273 456.02108765 309.75517273 C456.02108765 247.05517273 456.02108765 184.35517273 456.02108765 119.75517273 C404.87108765 119.75517273 353.72108765 119.75517273 301.02108765 119.75517273 C301.02108765 131.63517273 301.02108765 143.51517273 301.02108765 155.75517273 C313.56108765 155.75517273 326.10108765 155.75517273 339.02108765 155.75517273 C340.34108765 152.45517273 341.66108765 149.15517273 343.02108765 145.75517273 C347.45351788 141.2304002 350.18455182 139.97336779 356.27108765 139.50517273 C365.43762787 140.11627541 371.41492476 144.93362462 378.39608765 150.44267273 C379.2778064 151.12523132 380.15952515 151.80778992 381.06796265 152.5110321 C383.73049858 154.57820626 386.37729677 156.66409498 389.02108765 158.75517273 C389.95066284 159.48405701 390.88023804 160.21294128 391.83798218 160.96391296 C392.73371948 161.67104431 393.62945679 162.37817566 394.55233765 163.10673523 C395.3599353 163.74304871 396.16753296 164.37936218 396.99960327 165.03495789 C400.81030738 168.27773822 401.85648488 170.86466153 402.28671265 175.80595398 C402.63442341 186.77126133 402.63442341 186.77126133 399.02108765 191.75517273 C391.05405996 200.1656077 381.44658831 207.18516367 372.02108765 213.88017273 C370.53608765 214.93591492 370.53608765 214.93591492 369.02108765 216.01298523 C362.71185465 219.67694085 357.00393774 220.4754004 350.02108765 218.75517273 C344.32392298 216.0678309 342.27156709 212.37560089 340.02108765 206.75517273 C339.69108765 205.76517273 339.36108765 204.77517273 339.02108765 203.75517273 C326.48108765 203.75517273 313.94108765 203.75517273 301.02108765 203.75517273 C300.8113466 213.402703 300.8113466 213.402703 300.63314819 223.05082703 C300.6000354 224.2565033 300.56692261 225.46217957 300.5328064 226.70439148 C300.50662231 227.93504333 300.48043823 229.16569519 300.45346069 230.43363953 C299.98957137 233.99728393 299.21443961 235.93069178 297.02108765 238.75517273 C293.41940017 240.00793359 291.73149904 240.05512421 288.20858765 238.56767273 C285.66632152 236.46122365 285.54580672 235.91619545 285.02108765 232.75517273 C284.87333904 230.51276696 284.77364397 228.2670073 284.7046814 226.02079773 C284.66278687 224.72528992 284.62089233 223.4297821 284.57772827 222.09501648 C284.53792093 220.73173797 284.49820859 219.36845667 284.45858765 218.00517273 C284.41536491 216.62625398 284.37174944 215.24734747 284.32772827 213.86845398 C284.22164807 210.49746083 284.11958915 207.12639446 284.02108765 203.75517273 C281.05108765 203.75517273 278.08108765 203.75517273 275.02108765 203.75517273 C274.64597046 204.58661804 274.27085327 205.41806335 273.8843689 206.27470398 C273.37261108 207.36138367 272.86085327 208.44806335 272.33358765 209.56767273 C271.83472046 210.64661804 271.33585327 211.72556335 270.8218689 212.83720398 C268.42103332 216.72749503 266.05152858 218.18528427 261.6968689 219.40751648 C252.42836338 220.52586508 246.22802867 217.61557108 238.99057007 212.04447937 C236.57775422 210.12949894 234.20344996 208.16946423 231.82772827 206.20878601 C230.05655602 204.78371039 228.25062389 203.43117859 226.41171265 202.09501648 C219.29981417 196.91200364 213.91027812 192.42274415 211.02108765 183.75517273 C210.62157599 177.86237585 210.90699245 172.89799444 214.02108765 167.75517273 C216.71497459 164.6942355 219.81627227 162.26456411 223.02108765 159.75517273 C223.654823 159.25259949 224.28855835 158.75002625 224.9414978 158.23222351 C249.50979051 138.79589797 249.50979051 138.79589797 261.02108765 139.75517273 C265.59341455 141.17387603 268.93499785 143.00241575 271.39608765 147.19267273 C272.68843032 150.02588551 273.95701177 152.82896407 275.02108765 155.75517273 C277.99108765 155.75517273 280.96108765 155.75517273 284.02108765 155.75517273 C284.02695389 154.97336136 284.03282013 154.19154999 284.03886414 153.38604736 C284.09697982 145.9864202 284.16916296 138.58712254 284.25680256 131.18779087 C284.30136272 127.38450844 284.34064947 123.58132959 284.36752319 119.77787781 C284.39370073 116.10127324 284.43420248 112.42507038 284.48427391 108.74871635 C284.50084569 107.35228951 284.5124199 105.95579334 284.51870155 104.5592823 C284.60514382 87.09434462 284.60514382 87.09434462 290.33358765 79.81767273 C295.38041251 75.94452807 300.26019456 75.50016481 306.49520874 75.43632507 C307.21784912 75.42627945 307.9404895 75.41623383 308.68502808 75.40588379 C311.05485292 75.37518755 313.42456551 75.35805483 315.79452515 75.34111023 C317.44505775 75.32238763 319.09558089 75.30281341 320.74609375 75.28242493 C325.0762269 75.23121295 329.40639104 75.19152891 333.73666382 75.15428162 C338.16097614 75.11417321 342.58516075 75.06311213 347.0093689 75.01298523 C355.67986078 74.91635542 364.35040588 74.83292252 373.02108765 74.75517273 C373.02108765 65.51517273 373.02108765 56.27517273 373.02108765 46.75517273 C369.85854401 46.74304245 369.85854401 46.74304245 366.6321106 46.73066711 C346.79593451 46.65364204 326.95982842 46.56570013 307.12374496 46.46764565 C296.92499038 46.41749448 286.72624394 46.37105185 276.5274353 46.33329773 C267.63958326 46.30038717 258.75179393 46.26056113 249.86401105 46.21238267 C245.15671633 46.18710839 240.44946326 46.16532984 235.74211884 46.15182877 C231.31312623 46.13901687 226.88427639 46.11697187 222.45536232 46.08778954 C220.82837528 46.07870694 219.20136525 46.07302194 217.57435417 46.07095909 C215.35540638 46.06764134 213.13686453 46.0521775 210.91799927 46.03364563 C209.67542233 46.02811487 208.43284538 46.02258411 207.15261459 46.01688576 C204.16916043 45.76754771 202.47646255 45.42213996 200.02108765 43.75517273 C198.49616767 40.70533277 198.78546217 38.11283583 199.02108765 34.75517273 C200.0962925 33.05632591 200.0962925 33.05632591 202.02108765 31.75517273 C205.14053917 31.37764931 205.14053917 31.37764931 209.06781006 31.3742218 C209.78963427 31.36954183 210.51145849 31.36486186 211.25515616 31.36004007 C213.68041119 31.34804831 216.1051055 31.35756338 218.53036499 31.36698914 C220.26651846 31.36292521 222.00266934 31.35758434 223.73881531 31.35105896 C228.45996142 31.33735621 233.18091134 31.34269672 237.90206099 31.35219622 C242.83917243 31.35977993 247.77626682 31.35275057 252.71337891 31.34803772 C261.00738547 31.34257538 269.30131198 31.34978324 277.5953064 31.36405945 C287.18550745 31.38037612 296.77551708 31.37510652 306.36571348 31.35858023 C314.59510003 31.34496615 322.82442894 31.34304565 331.05382311 31.35089624 C335.97073225 31.35557456 340.88755144 31.35619344 345.8044548 31.34628677 C350.42885226 31.33762092 355.05300307 31.34363209 359.67737389 31.36096954 C361.37490746 31.36493688 363.07246178 31.36379611 364.76998711 31.35718155 C367.08707106 31.3489853 369.40336439 31.35926389 371.72039795 31.3742218 C373.01715139 31.37535288 374.31390484 31.37648396 375.64995384 31.37764931 C380.14643733 31.88119735 382.76172539 33.36087881 385.77108765 36.69267273 C388.3263895 40.90892079 388.21896424 45.32790109 388.3374939 50.14579773 C388.35827499 50.85041138 388.37905609 51.55502502 388.40046692 52.2809906 C388.46562602 54.52228954 388.52469013 56.76370137 388.58358765 59.00517273 C388.62680491 60.5286217 388.67042021 62.05205944 388.71444702 63.57548523 C388.82127256 67.30192864 388.92263403 71.02849767 389.02108765 74.75517273 C392.98108765 74.75517273 396.94108765 74.75517273 401.02108765 74.75517273 C401.09538302 68.31395476 401.14975905 61.87298763 401.18588257 55.43144226 C401.20094571 53.24129388 401.22140023 51.05117554 401.24740601 48.86112976 C401.28389754 45.7085477 401.30083904 42.55636536 401.3140564 39.40361023 C401.32954025 38.42838409 401.34502411 37.45315796 401.36097717 36.44837952 C401.36247231 30.37459049 400.82222733 25.75588471 396.4859314 21.11064148 C391.64929181 17.41203474 389.56296461 16.62974356 383.48512745 16.61815834 C382.46165723 16.6141806 382.46165723 16.6141806 381.41751084 16.6101225 C379.10842032 16.60240247 376.79938274 16.6018693 374.49028015 16.60127258 C372.82712249 16.59725974 371.16396581 16.59282181 369.50081033 16.58799303 C364.91260821 16.5760018 360.32441661 16.57037318 355.73620188 16.56581187 C350.79467298 16.55986541 345.85315674 16.54825319 340.91163635 16.53752136 C328.96869604 16.51297532 317.02575153 16.49836695 305.08279374 16.48546129 C301.71116064 16.48175096 298.33952796 16.4777776 294.96789527 16.47370863 C274.0433787 16.44847365 253.11886151 16.42641426 232.19433308 16.41398048 C227.34532481 16.41105065 222.49631656 16.408089 217.64730835 16.40507507 C216.44206716 16.40432902 215.23682597 16.40358297 213.99506231 16.40281431 C194.4644975 16.39015676 174.93402365 16.35692966 155.40350137 16.31527324 C135.36489373 16.27288251 115.3263327 16.24928875 95.28768033 16.24405992 C84.03146494 16.24064254 72.77539168 16.22884894 61.51922035 16.19595718 C51.93409411 16.16799482 42.34913911 16.15694057 32.76397524 16.16815265 C27.87193857 16.17334907 22.98026075 16.17038873 18.08827591 16.1456871 C13.61038021 16.12326478 9.13310259 16.1238796 4.65519657 16.14289097 C3.03467648 16.14570087 1.41411511 16.14003766 -0.20633837 16.12507804 C-11.7005194 15.78380311 -11.7005194 15.78380311 -20.97891235 21.75517273 Z M301.02108765 91.75517273 C301.02108765 95.71517273 301.02108765 99.67517273 301.02108765 103.75517273 C352.17108765 103.75517273 403.32108765 103.75517273 456.02108765 103.75517273 C456.02108765 99.79517273 456.02108765 95.83517273 456.02108765 91.75517273 C454.22491837 89.95900345 451.52202471 90.62900033 449.09909058 90.62818909 C447.8117955 90.62536926 446.52450043 90.62254944 445.19819641 90.61964417 C443.75830064 90.62158876 442.31840501 90.62363695 440.87850952 90.6257782 C439.37261411 90.62442422 437.86671903 90.6226443 436.36082458 90.62046814 C432.25969958 90.61589345 428.15859961 90.61768351 424.05747414 90.62084723 C419.77512161 90.62337064 415.4927713 90.62103334 411.2104187 90.61946106 C404.01758436 90.61763931 396.82476027 90.62004581 389.63192749 90.62480164 C381.30392431 90.63024427 372.97594561 90.62848161 364.64794302 90.62297523 C357.51080919 90.61844425 350.37368275 90.61779348 343.23654795 90.6204139 C338.96810409 90.62197676 334.69967176 90.6221702 330.43122864 90.61887741 C326.41924831 90.61599892 322.40729969 90.61797398 318.3953228 90.62377167 C316.91864004 90.62509938 315.44195463 90.62470495 313.9652729 90.622509 C311.95787778 90.61979799 309.95047686 90.62379189 307.94308472 90.62818909 C306.81703072 90.62856611 305.69097672 90.62894314 304.53079987 90.62933159 C302.08182513 90.4708324 302.08182513 90.4708324 301.02108765 91.75517273 Z M252.02108765 157.53642273 C251.2204187 158.12761902 250.41974976 158.71881531 249.59481812 159.32792664 C248.74548706 159.96391785 247.89615601 160.59990906 247.02108765 161.25517273 C246.16273315 161.89503113 245.30437866 162.53488953 244.42001343 163.19413757 C241.94912496 165.04180631 239.48468797 166.89780414 237.02108765 168.75517273 C236.40846069 169.21182312 235.79583374 169.66847351 235.16464233 170.13896179 C233.73318429 171.2079363 232.31384249 172.29308957 230.89608765 173.38017273 C230.15100952 173.94993835 229.4059314 174.51970398 228.63827515 175.10673523 C226.95451902 176.67710999 226.95451902 176.67710999 225.96640015 178.65361023 C225.81033131 181.00161951 225.81033131 181.00161951 228.0015564 183.13407898 C231.38521676 186.07125376 234.81645449 188.9173831 238.33358765 191.69267273 C238.99785767 192.21901306 239.66212769 192.74535339 240.3465271 193.28764343 C242.23514148 194.78055254 244.12791282 196.2680549 246.02108765 197.75517273 C246.88475952 198.44095398 247.7484314 199.12673523 248.63827515 199.83329773 C249.32147827 200.36439148 250.0046814 200.89548523 250.70858765 201.44267273 C251.26932983 201.87966492 251.83007202 202.3166571 252.4078064 202.76689148 C254.24523066 203.89248068 255.91724919 204.33807186 258.02108765 204.75517273 C258.13065796 203.85153992 258.24022827 202.9479071 258.3531189 202.01689148 C258.51167358 200.83739929 258.67022827 199.6579071 258.83358765 198.44267273 C258.98440796 197.27091492 259.13522827 196.0991571 259.2906189 194.89189148 C260.29263685 190.58910851 260.29263685 190.58910851 263.02108765 188.75517273 C265.88317619 188.45377226 268.52857782 188.33515334 271.3921814 188.35112 C272.67308151 188.34082512 272.67308151 188.34082512 273.9798584 188.33032227 C276.80626997 188.31200085 279.63212936 188.31589897 282.45858765 188.32157898 C284.42009666 188.31702005 286.38160406 188.31171535 288.34310913 188.30569458 C292.45556118 188.29675321 296.56781914 188.29919864 300.68026733 188.30912781 C305.95669846 188.32062441 311.23246105 188.30040056 316.50880432 188.27121067 C320.55966463 188.25288747 324.61036355 188.25313327 328.66125488 188.25884819 C330.60696349 188.25900185 332.55268273 188.25292073 334.49835205 188.24055672 C337.21599606 188.22571992 339.9323897 188.23626899 342.6499939 188.25346375 C343.45735992 188.24379578 344.26472595 188.23412781 345.09655762 188.22416687 C350.52846193 188.29633065 350.52846193 188.29633065 353.01669312 190.61392212 C354.2753575 193.29724605 354.46128883 195.48777563 354.58358765 198.44267273 C354.66613487 201.30087246 354.66613487 201.30087246 355.02108765 203.75517273 C355.68108765 204.08517273 356.34108765 204.41517273 357.02108765 204.75517273 C363.38336897 200.64157975 369.43726828 196.24389865 375.39608765 191.56767273 C376.18886108 190.95214539 376.98163452 190.33661804 377.7984314 189.70243835 C382.69342652 186.03555703 382.69342652 186.03555703 387.02108765 181.75517273 C387.18224456 178.75356171 387.18224456 178.75356171 386.02108765 175.75517273 C383.82718702 173.46234088 383.82718702 173.46234088 380.89608765 171.56767273 C379.28540405 170.4326532 379.28540405 170.4326532 377.6421814 169.27470398 C377.06065308 168.87332214 376.47912476 168.47194031 375.87997437 168.05839539 C373.88987201 166.66318047 371.94026346 165.22223756 369.9937439 163.76689148 C369.322948 163.2663324 368.6521521 162.76577332 367.96102905 162.25004578 C366.64370322 161.2666288 365.32695483 160.28243777 364.01083374 159.29740906 C361.36330354 157.34535683 359.16301683 155.80248246 356.02108765 154.75517273 C353.95147956 156.82478082 354.70390445 161.18862835 354.5953064 163.99345398 C353.85074852 167.57442282 352.95105918 168.5668156 350.02108765 170.75517273 C347.09674825 171.1446033 344.5508145 171.29244868 341.62826538 171.25688171 C340.36177658 171.26498619 340.36177658 171.26498619 339.06970215 171.27325439 C336.2810045 171.28575402 333.49333666 171.26924412 330.7046814 171.25126648 C328.76702317 171.25142142 326.82936463 171.25290966 324.89170837 171.25567627 C320.83223763 171.25706077 316.77312 171.24449254 312.7137146 171.22172546 C307.50576471 171.1933218 302.29840076 171.19608263 297.09040737 171.20881557 C293.09015379 171.21576394 289.09003611 171.20799343 285.08979988 171.19555855 C283.1692259 171.19103718 281.24863738 171.19071321 279.32806206 171.19462395 C276.64657451 171.1975284 273.96590026 171.1810669 271.28451538 171.15922546 C270.48807114 171.16372711 269.69162689 171.16822876 268.87104797 171.17286682 C263.5330704 171.10047836 263.5330704 171.10047836 261.05027771 169.42596436 C259.41929119 166.77821374 259.2272071 164.12579311 258.83358765 161.06767273 C258.67503296 159.88818054 258.51647827 158.70868835 258.3531189 157.49345398 C258.24354858 156.58982117 258.13397827 155.68618835 258.02108765 154.75517273 C255.26105096 154.75517273 254.22962989 155.89776326 252.02108765 157.53642273 Z M301.02108765 325.75517273 C301.02108765 330.04517273 301.02108765 334.33517273 301.02108765 338.75517273 C352.17108765 338.75517273 403.32108765 338.75517273 456.02108765 338.75517273 C456.02108765 334.46517273 456.02108765 330.17517273 456.02108765 325.75517273 C404.87108765 325.75517273 353.72108765 325.75517273 301.02108765 325.75517273 Z M105.02108765 346.75517273 C101.60649955 354.27724663 101.60649955 354.27724663 99.02108765 364.75517273 C149.18108765 364.75517273 199.34108765 364.75517273 251.02108765 364.75517273 C249.16400313 355.66942344 249.16400313 355.66942344 246.02108765 346.75517273 C199.49108765 346.75517273 152.96108765 346.75517273 105.02108765 346.75517273 Z M63.02108765 386.75517273 C59.78311873 393.95256756 59.78311873 393.95256756 61.02108765 411.75517273 C137.25108765 411.75517273 213.48108765 411.75517273 292.02108765 411.75517273 C293.21405269 395.05089921 293.21405269 395.05089921 285.81111717 382.28775978 C282.01927351 380.20486767 278.59762332 380.19440064 274.38061523 380.23377991 C273.51148542 380.22612881 272.6423556 380.21847772 271.74688852 380.21059477 C268.83494959 380.18995913 265.9238012 380.19791364 263.0118103 380.20585632 C260.92392751 380.1971619 258.83605111 380.18679554 256.7481842 380.17488098 C251.07663176 380.14807908 245.40534568 380.14694605 239.73374224 380.15200758 C234.99957898 380.15414567 230.26546976 380.14438364 225.53131807 380.13479674 C214.3625023 380.11259853 203.19382106 380.11173585 192.0249939 380.12382507 C180.50220304 380.13590567 168.97990054 380.11128219 157.45719302 380.06868494 C147.56488862 380.0334594 137.6727397 380.0214492 127.78037488 380.02796042 C121.871816 380.03158773 115.96360543 380.02629826 110.0551033 379.99853134 C104.49810512 379.97339408 98.94186835 379.97724314 93.38488197 380.00335312 C91.34631786 380.00808826 89.30770034 380.00260207 87.26919746 379.98610687 C84.4837567 379.96519425 81.70087625 379.98134624 78.91552734 380.00672913 C77.7080701 379.98460627 77.7080701 379.98460627 76.47621977 379.96203649 C70.52081721 380.07605586 66.76196543 382.06019847 63.02108765 386.75517273 Z " fill="#ffffff" transform="translate(39.978912353515625,41.24482727050781)"/>
<path d="M0 0 C1.27166016 -0.02771484 2.54332031 -0.05542969 3.85351562 -0.08398438 C12.04006013 -0.06276472 17.44405878 1.07990839 23.5625 6.6875 C27.12700668 10.80896085 27.23054311 15.43342367 27.5625 20.6875 C30.93957769 19.95427228 32.82972207 18.80319904 35.5625 16.6875 C40.95553688 14.88982104 47.20543965 14.63686445 52.671875 16.34765625 C57.51555516 19.0696389 61.42221911 23.27018147 65.375 27.125 C65.93888428 27.67438232 66.50276855 28.22376465 67.08374023 28.78979492 C72.26696061 34.0384974 74.99097499 38.60649205 75 46.1875 C74.87884404 51.7925575 74.20975627 54.50388252 70.5625 58.6875 C69.86820621 60.0066582 69.19586645 61.33803004 68.5625 62.6875 C69.41521484 62.72617188 69.41521484 62.72617188 70.28515625 62.765625 C76.65545688 63.23356027 81.47867532 64.39577092 85.94946289 69.16796875 C90.64385718 75.69241167 90.34062942 82.32692965 90.25 90.125 C90.27771484 91.39666016 90.30542969 92.66832031 90.33398438 93.97851562 C90.31528528 101.19262728 89.62146352 106.12275553 85.28417969 111.98046875 C81.21628647 116.01375142 76.18275221 117.87998227 70.5 117.9375 C69.530625 117.855 68.56125 117.7725 67.5625 117.6875 C67.98402344 118.24179688 68.40554687 118.79609375 68.83984375 119.3671875 C69.38769531 120.09164062 69.93554688 120.81609375 70.5 121.5625 C71.04527344 122.28179687 71.59054688 123.00109375 72.15234375 123.7421875 C75.82846085 128.81339613 75.14019653 134.65378071 74.5625 140.6875 C71.94248855 149.33818868 61.05982008 158.92659694 53.52734375 163.55078125 C47.5708293 165.83450418 41.08140898 165.6034669 35.125 163.4375 C32.4887764 161.63715217 29.99145491 159.75925566 27.5625 157.6875 C27.624375 158.698125 27.68625 159.70875 27.75 160.75 C27.4796064 166.42826569 25.89834574 170.14073124 22.1875 174.4375 C15.13054175 180.48632135 9.34677496 180.23656946 0.3125 180.25 C-1.61529297 180.30510742 -1.61529297 180.30510742 -3.58203125 180.36132812 C-11.78022266 180.39916593 -17.36827186 179.4460629 -23.4375 173.6875 C-26.96436386 168.83806219 -27.10360478 163.51339597 -27.4375 157.6875 C-27.98019531 158.10902344 -28.52289063 158.53054688 -29.08203125 158.96484375 C-29.79746094 159.51269531 -30.51289062 160.06054688 -31.25 160.625 C-31.95769531 161.17027344 -32.66539063 161.71554687 -33.39453125 162.27734375 C-38.44672334 165.7646121 -44.55910616 165.42321888 -50.4375 164.6875 C-59.07648734 161.25999933 -67.86651135 151.85802614 -73.125 144.25 C-75.44101522 137.96367299 -75.4787142 131.55083906 -73.1875 125.25 C-71.38715217 122.6137764 -69.50925566 120.11645491 -67.4375 117.6875 C-68.07816406 117.66171875 -68.71882813 117.6359375 -69.37890625 117.609375 C-75.50314714 117.20778543 -79.47153912 116.36231105 -84.4375 112.6875 C-90.03522907 105.46937567 -89.68061909 99.30212423 -89.75 90.5 C-89.77900391 89.29279297 -89.80800781 88.08558594 -89.83789062 86.84179688 C-89.88927216 79.61280977 -89.39813775 74.79923642 -85.4375 68.6875 C-81.23586099 64.48586099 -76.98380786 62.7818077 -71.0625 62.5625 C-70.19625 62.60375 -69.33 62.645 -68.4375 62.6875 C-69.0871875 61.635625 -69.0871875 61.635625 -69.75 60.5625 C-70.306875 59.61375 -70.86375 58.665 -71.4375 57.6875 C-71.994375 56.841875 -72.55125 55.99625 -73.125 55.125 C-75.3353612 49.33595875 -75.82635 43.1426878 -73.4765625 37.296875 C-68.45419813 29.22625479 -59.50975497 19.02990973 -50.4375 15.6875 C-41.90011036 14.71576459 -36.55785202 15.94059865 -29.4375 20.6875 C-28.7775 20.6875 -28.1175 20.6875 -27.4375 20.6875 C-27.355 19.511875 -27.2725 18.33625 -27.1875 17.125 C-26.49149481 11.87248084 -24.857888 7.9649957 -20.95703125 4.29443359 C-14.43135183 -0.39274729 -7.79561876 -0.09060093 0 0 Z M-11.4375 18.6875 C-11.78276588 21.48022024 -11.88006407 24.24768113 -11.99609375 27.05859375 C-12.51469246 30.14723914 -12.93340599 30.86729721 -15.4375 32.6875 C-17.50402786 33.82146923 -19.61431674 34.87736249 -21.75 35.875 C-22.85988281 36.40480469 -23.96976563 36.93460938 -25.11328125 37.48046875 C-28.58193804 38.73994578 -30.79044931 39.19919074 -34.4375 38.6875 C-36.6328125 37.12109375 -36.6328125 37.12109375 -38.5625 35.125 C-40.4132407 33.11120156 -40.4132407 33.11120156 -42.4375 31.6875 C-47.03703262 32.28098808 -49.61460245 35.34972512 -52.75 38.5 C-53.59401367 39.30147461 -53.59401367 39.30147461 -54.45507812 40.11914062 C-56.2673578 41.86305699 -56.2673578 41.86305699 -58.4375 44.6875 C-58.01365559 48.07510404 -57.01255683 49.29862547 -54.375 51.375 C-51.88698113 53.78489267 -50.93894762 55.32956561 -50.75 58.8125 C-51.17926316 65.27346093 -53.82312704 73.07312704 -58.4375 77.6875 C-61.78173499 78.07472721 -65.10607702 78.19495916 -68.46875 78.34375 C-71.55356771 78.38951329 -71.55356771 78.38951329 -73.4375 80.6875 C-73.74695906 82.68771969 -73.74695906 82.68771969 -73.703125 84.96875 C-73.70570312 85.81050781 -73.70828125 86.65226562 -73.7109375 87.51953125 C-73.70320313 88.39996094 -73.69546875 89.28039062 -73.6875 90.1875 C-73.69523437 91.06792969 -73.70296875 91.94835937 -73.7109375 92.85546875 C-73.70835938 93.69722656 -73.70578125 94.53898437 -73.703125 95.40625 C-73.70086914 96.17904297 -73.69861328 96.95183594 -73.69628906 97.74804688 C-73.60574373 99.92417061 -73.60574373 99.92417061 -71.4375 101.6875 C-68.1245157 102.03600301 -64.83260134 102.13079817 -61.50390625 102.24609375 C-58.4375 102.6875 -58.4375 102.6875 -56.6953125 103.859375 C-55.01931944 106.29529038 -53.89248407 108.77244793 -52.75 111.5 C-52.31300781 112.51707031 -51.87601563 113.53414063 -51.42578125 114.58203125 C-50.36758479 117.90719403 -50.00419792 120.22579318 -50.4375 123.6875 C-51.93359375 125.8828125 -51.93359375 125.8828125 -53.875 127.8125 C-56.4324637 130.38546348 -58.02347415 132.02182509 -58.4375 135.6875 C-57.45328551 137.44121762 -57.45328551 137.44121762 -55.83203125 138.95703125 C-55.26033203 139.53517578 -54.68863281 140.11332031 -54.09960938 140.70898438 C-53.18405273 141.59553711 -53.18405273 141.59553711 -52.25 142.5 C-51.65896484 143.11037109 -51.06792969 143.72074219 -50.45898438 144.34960938 C-49.88083984 144.92130859 -49.30269531 145.49300781 -48.70703125 146.08203125 C-48.17698486 146.60643799 -47.64693848 147.13084473 -47.10083008 147.67114258 C-45.46209534 148.90619198 -45.46209534 148.90619198 -43.35375977 148.45214844 C-40.12609982 147.16420973 -38.04956862 144.61502652 -35.6328125 142.18359375 C-32.64086576 140.14459802 -31.01390919 140.2464532 -27.4375 140.6875 C-24.89624225 141.5611432 -22.55809208 142.46236373 -20.125 143.5625 C-19.49271484 143.83191406 -18.86042969 144.10132813 -18.20898438 144.37890625 C-13.57322072 146.41605855 -13.57322072 146.41605855 -12.4375 148.6875 C-12.16050281 152.02905338 -11.99049296 155.37035874 -11.81640625 158.71875 C-11.73052673 161.80240256 -11.73052673 161.80240256 -9.4375 163.6875 C-7.43728031 163.99695906 -7.43728031 163.99695906 -5.15625 163.953125 C-4.31449219 163.95570313 -3.47273438 163.95828125 -2.60546875 163.9609375 C-1.72503906 163.95320312 -0.84460938 163.94546875 0.0625 163.9375 C0.94292969 163.94523438 1.82335937 163.95296875 2.73046875 163.9609375 C3.57222656 163.95835937 4.41398437 163.95578125 5.28125 163.953125 C6.05404297 163.95086914 6.82683594 163.94861328 7.62304688 163.94628906 C9.79917061 163.85574373 9.79917061 163.85574373 11.5625 161.6875 C11.91100301 158.3745157 12.00579817 155.08260134 12.12109375 151.75390625 C12.5625 148.6875 12.5625 148.6875 13.734375 146.9453125 C16.17029038 145.26931944 18.64744793 144.14248407 21.375 143 C22.39207031 142.56300781 23.40914063 142.12601562 24.45703125 141.67578125 C27.78219403 140.61758479 30.10079318 140.25419792 33.5625 140.6875 C35.7578125 142.18359375 35.7578125 142.18359375 37.6875 144.125 C41.05386201 147.57128213 41.05386201 147.57128213 45.5625 148.6875 C47.62622567 147.45290393 47.62622567 147.45290393 49.5 145.5625 C50.18835938 144.9128125 50.87671875 144.263125 51.5859375 143.59375 C52.23820312 142.9646875 52.89046875 142.335625 53.5625 141.6875 C54.38621094 140.99140625 54.38621094 140.99140625 55.2265625 140.28125 C56.81468195 138.96643149 56.81468195 138.96643149 58.5625 136.6875 C58.22674702 131.52529788 55.58812132 129.30616717 52.05859375 125.84765625 C50.00760712 122.88631003 50.11141206 121.23927011 50.5625 117.6875 C51.875 114.328125 51.875 114.328125 53.5625 110.9375 C55.75052546 106.98507229 55.75052546 106.98507229 56.5625 102.6875 C57.62210938 102.63851562 58.68171875 102.58953125 59.7734375 102.5390625 C61.16148497 102.46403291 62.54950451 102.38848515 63.9375 102.3125 C64.63617188 102.2815625 65.33484375 102.250625 66.0546875 102.21875 C70.26435827 102.09250502 70.26435827 102.09250502 73.5625 99.6875 C73.87195906 97.68728031 73.87195906 97.68728031 73.828125 95.40625 C73.83070313 94.56449219 73.83328125 93.72273438 73.8359375 92.85546875 C73.82820312 91.97503906 73.82046875 91.09460938 73.8125 90.1875 C73.82023438 89.30707031 73.82796875 88.42664063 73.8359375 87.51953125 C73.83335937 86.67777344 73.83078125 85.83601563 73.828125 84.96875 C73.82474121 83.80956055 73.82474121 83.80956055 73.82128906 82.62695312 C73.73074373 80.45082939 73.73074373 80.45082939 71.5625 78.6875 C68.76972689 78.29828869 68.76972689 78.29828869 65.625 78.1875 C59.89474115 77.9089941 59.89474115 77.9089941 56.5625 75.6875 C53.60242608 69.72566098 49.99359822 62.35533259 51.5625 55.6875 C53.29729552 53.51585524 55.10310668 51.58307033 57.12890625 49.6796875 C58.78634252 47.77515245 58.78634252 47.77515245 58.60546875 45.3125 C57.20398321 41.78516562 54.96761278 39.43295073 52.3125 36.8125 C51.59513672 36.04679687 51.59513672 36.04679687 50.86328125 35.265625 C48.55250677 32.94858826 47.26393872 31.6906083 43.91796875 31.67578125 C40.74865872 33.03706035 38.88458486 34.97211189 36.50390625 37.41015625 C33.65833963 39.28239022 31.92981958 39.09431732 28.5625 38.6875 C25.85105322 37.7667047 23.31735439 36.57488694 20.75 35.3125 C19.7300293 34.83683594 19.7300293 34.83683594 18.68945312 34.3515625 C13.70084678 31.96419356 13.70084678 31.96419356 12.5625 29.6875 C12.28829082 26.86706274 12.1163093 24.04696953 11.94140625 21.21875 C11.79434672 18.5229242 11.79434672 18.5229242 9.5625 16.6875 C7.56228031 16.37804094 7.56228031 16.37804094 5.28125 16.421875 C4.43949219 16.41929688 3.59773438 16.41671875 2.73046875 16.4140625 C1.85003906 16.42179687 0.96960938 16.42953125 0.0625 16.4375 C-1.25814453 16.42589844 -1.25814453 16.42589844 -2.60546875 16.4140625 C-3.44722656 16.41664062 -4.28898437 16.41921875 -5.15625 16.421875 C-6.31543945 16.42525879 -6.31543945 16.42525879 -7.49804688 16.42871094 C-9.67417061 16.51925627 -9.67417061 16.51925627 -11.4375 18.6875 Z " fill="#ffffff" transform="translate(152.4375,111.3125)"/>
<path d="M0 0 C9.63310509 8.12602311 15.68080483 17.01450349 16.92578125 29.75 C17.21488788 39.73178686 14.99588432 49.70256069 8.44140625 57.47265625 C-0.36981823 66.7156111 -9.26160925 72.24700164 -22.3125 72.625 C-33.82069676 72.48522433 -43.14407944 68.43015167 -51.2109375 60.4296875 C-59.23724789 51.79378392 -62.91933557 41.86490223 -62.625 30.0546875 C-61.20252817 17.5724972 -55.86538687 8.75005661 -46.37890625 0.84765625 C-32.98103561 -9.10577127 -13.8039511 -9.73598908 0 0 Z M-42.3125 19.3125 C-46.04991048 24.73777327 -46.94953336 31.21244486 -45.9453125 37.67578125 C-43.94822028 44.81353678 -39.56426802 50.02148162 -33.5625 54.25 C-25.87540862 56.76308757 -19.04994921 57.18238906 -11.60546875 53.73828125 C-5.75860105 50.10266505 -1.7875072 44.79650754 0.25 38.23828125 C1.82973566 31.28462337 0.15106188 25.39080719 -3.3125 19.3125 C-8.53619899 13.00396962 -14.82979398 10.1349059 -22.8125 8.9375 C-30.96997044 10.16112057 -36.71864618 13.20532783 -42.3125 19.3125 Z " fill="#ffffff" transform="translate(175.3125,168.6875)"/>
</svg>
