<svg width="43" height="43" viewBox="0 0 43 43" fill="none" xmlns="http://www.w3.org/2000/svg">
<g id="staff-symbol-svgrepo-com 1" clip-path="url(#clip0_1005_40)">
<g id="Group">
<g id="_x31__143_">
<g id="Group_2">
<path id="Vector" d="M5.00793 16.7826C5.97071 20.4581 9.07591 23.8441 13.0116 23.8441C17.0059 23.8441 20.1609 20.4733 21.1476 16.8075C21.5227 16.7652 21.8328 16.479 21.8664 16.0887L21.9911 14.6402C22.0225 14.2629 21.7862 13.9398 21.4425 13.8205C21.436 13.7338 21.4338 13.6459 21.424 13.5603C21.3503 10.2404 20.7735 7.56025 18.1605 6.45218C15.4023 5.28339 12.9715 5.26713 11.1869 5.96103C11.0698 6.00765 10.7673 6.40989 10.6491 6.48254C10.5309 6.55518 9.90533 6.34918 9.66789 6.40447C5.75387 6.96393 4.46257 10.6513 4.74772 13.5267C4.73904 13.6069 4.73362 13.6882 4.72712 13.7696C4.34872 13.8639 4.07767 14.2076 4.11237 14.6087L4.23597 16.0572C4.27174 16.4671 4.60785 16.7642 5.00793 16.7826ZM5.84169 13.9138C7.55583 13.286 10.8529 11.973 11.2107 11.2834C12.7102 12.8415 18.0055 13.7164 20.3301 14.0081C20.3398 14.1588 20.3528 14.3052 20.3528 14.4569C20.3528 18.2788 17.1457 22.7219 13.0116 22.7219C8.89267 22.7219 5.81458 18.359 5.81458 14.4569C5.8135 14.2737 5.82759 14.0948 5.84169 13.9138Z" fill="white"/>
<path id="Vector_2" d="M19.3186 22.5268C19.1126 22.4953 18.9109 22.542 18.7786 22.5951L15.4815 27.0545L12.9802 25.0595L12.9651 25.0725V25.0866L12.9618 25.0834L10.4605 27.0783L7.16341 22.6189C7.03222 22.5647 6.82948 22.5181 6.62347 22.5496C0.394655 23.4278 0 37.4966 0 37.4966L12.977 37.5052V37.4825L25.942 37.4738C25.942 37.4738 25.5463 23.405 19.3186 22.5268Z" fill="white"/>
<path id="Vector_3" d="M26.0177 16.5907C26.7983 19.5723 29.3181 22.3164 32.5089 22.3164C35.7486 22.3164 38.3084 19.5831 39.1085 16.6091C39.4121 16.5744 39.6647 16.3435 39.6918 16.0269L39.7927 14.8527C39.8187 14.5459 39.6257 14.2835 39.3471 14.187C39.3427 14.1187 39.3395 14.046 39.3319 13.9777C39.2723 11.2856 38.805 9.10961 36.6864 8.21187C34.4497 7.26427 32.4775 7.25018 31.03 7.81288C30.9357 7.85083 30.6907 8.17718 30.5953 8.2379C30.4977 8.29753 29.9914 8.12839 29.7995 8.17393C26.6249 8.62713 25.5764 11.6185 25.8074 13.9506C25.7998 14.0168 25.7965 14.0818 25.7911 14.148C25.4843 14.2249 25.2653 14.5036 25.2935 14.8278L25.3932 16.002C25.4203 16.3337 25.6935 16.5755 26.0177 16.5907ZM26.6932 14.2629C28.0831 13.7533 30.759 12.6886 31.0485 12.1291C32.266 13.3912 36.5606 14.1003 38.445 14.3399C38.4537 14.4591 38.4645 14.5806 38.4645 14.7031C38.4645 17.8018 35.8646 21.4068 32.51 21.4068C29.1684 21.4068 26.6715 17.8679 26.6715 14.7031C26.6715 14.5556 26.6813 14.4093 26.6932 14.2629Z" fill="white"/>
<path id="Vector_4" d="M37.6254 21.2506C37.4584 21.2246 37.2947 21.2625 37.1895 21.3048L34.5137 24.9228L32.4851 23.3052L32.4732 23.3149V23.3269L32.4699 23.3247L30.4413 24.9423L27.7655 21.3243C27.6592 21.281 27.4944 21.2452 27.3296 21.2701C25.6806 21.5021 24.5389 22.8769 23.7441 24.6193C24.2136 25.3446 24.875 26.5015 25.4355 28.0237C25.9939 29.5362 26.3636 31.5962 26.6043 33.3992L32.4829 33.4025V33.383L42.9998 33.3765C42.9987 33.3732 42.6778 21.9597 37.6254 21.2506Z" fill="white"/>
</g>
</g>
</g>
</g>
<defs>
<clipPath id="clip0_1005_40">
<rect width="43" height="43" fill="white"/>
</clipPath>
</defs>
</svg>
