<svg width="51" height="46" viewBox="0 0 51 46" fill="none" xmlns="http://www.w3.org/2000/svg">
<g id="users-users-network-people-svgrepo-com (1) 1">
<g id="Group">
<path id="Vector" d="M29.7764 30.9062C30.2451 30.1875 29.9326 29.325 29.3076 28.8938L26.9639 27.6V24.4375C26.9639 23.575 26.3389 23 25.4014 23C24.4639 23 23.8389 23.575 23.8389 24.4375V27.6L21.4951 28.8938C20.7139 29.325 20.5576 30.1875 21.0264 30.9062C21.4951 31.625 22.4326 31.7687 23.2139 31.3375L25.4014 30.0437H25.5576H25.7139L27.9014 31.3375C27.9014 31.625 28.2139 31.625 28.5264 31.625C28.9951 31.625 29.6201 31.3375 29.7764 30.9062Z" fill="white"/>
<path id="Vector_2" d="M17.5886 20.125H33.2136C33.6824 20.125 34.1511 19.9813 34.4636 19.55C34.7761 19.2625 34.9324 18.8313 34.7761 18.4C34.3074 16.2438 32.5886 14.5188 30.2449 13.9437C29.6199 13.8 29.1511 13.3687 28.9949 12.7937C29.6199 12.075 30.0886 11.0688 30.0886 10.0625V7.1875C30.0886 4.74375 28.0574 2.875 25.4011 2.875C22.7449 2.875 20.7136 4.74375 20.7136 7.1875V10.0625C20.7136 11.0688 21.1824 12.075 21.8074 12.7937C21.6511 13.3687 21.1824 13.8 20.5574 13.9437C18.2136 14.5188 16.4949 16.2438 16.1824 18.4C16.0261 18.8313 16.1824 19.2625 16.4949 19.55C16.6511 19.9813 17.1199 20.125 17.5886 20.125Z" fill="white"/>
<path id="Vector_3" d="M42.7449 36.9438C42.1199 36.8 41.6511 36.3687 41.4949 35.7937C42.1199 35.075 42.5886 34.0688 42.5886 33.0625V30.1875C42.5886 27.7437 40.5574 25.875 37.9011 25.875C35.2449 25.875 33.2136 27.7437 33.2136 30.1875V33.0625C33.2136 34.0688 33.6824 35.075 34.3074 35.7937C34.1511 36.3687 33.6824 36.8 33.0574 36.9438C30.7136 37.5188 28.9949 39.2437 28.6824 41.4C28.5261 41.8312 28.6824 42.2625 28.9949 42.55C29.3074 42.8375 29.7761 43.125 30.2449 43.125H45.8699C46.3386 43.125 46.8074 42.9813 47.1199 42.55C47.4324 42.2625 47.5886 41.8312 47.4324 41.4C46.8074 39.2437 44.9324 37.5188 42.7449 36.9438Z" fill="white"/>
<path id="Vector_4" d="M17.7449 36.9438C17.1199 36.8 16.6511 36.3687 16.4949 35.7937C17.1199 35.075 17.5886 34.0688 17.5886 33.0625V30.1875C17.5886 27.7437 15.5574 25.875 12.9011 25.875C10.2449 25.875 8.21364 27.7437 8.21364 30.1875V33.0625C8.21364 34.0688 8.68239 35.075 9.30739 35.7937C9.15114 36.3687 8.68239 36.8 8.05739 36.9438C5.71364 37.5188 3.99489 39.2437 3.68239 41.4C3.52614 41.8312 3.68239 42.2625 3.99489 42.55C4.15114 42.9813 4.61989 43.125 5.08864 43.125H20.7136C21.1824 43.125 21.6511 42.9813 21.9636 42.55C22.2761 42.2625 22.4324 41.8312 22.2761 41.4C21.8074 39.2437 19.9324 37.5188 17.7449 36.9438Z" fill="white"/>
</g>
</g>
</svg>
